<svg width="100" height="100" viewBox="0 0 100 100" fill="none" xmlns="http://www.w3.org/2000/svg">
<path d="M0.488281 0.488281L0 0.957031V50V99.043L0.488281 99.5117L0.957031 100H35.9375H70.918L71.3867 99.5117L71.875 99.043V90.9766V82.9102L80.4297 91.4648C87.832 98.8477 89.043 100 89.5508 100C90.0391 100 90.8398 99.2773 95.0586 95.0586C99.6289 90.5078 100 90.0781 100 89.4531C100 88.8086 99.1797 87.9688 85.9375 74.8438L71.875 60.8984V40.2734V19.6289L62.0508 9.82422L52.2461 0H26.6016H0.957031L0.488281 0.488281ZM49.8047 11.8359C49.8047 20.7422 49.8242 21.0547 50.5664 21.6211C50.8008 21.7969 53.1055 21.8555 59.8242 21.875H68.75V39.7852V57.7148L60.293 49.2578C55.6641 44.6289 51.7969 40.8203 51.7188 40.8203C51.6602 40.8203 48.1445 39.375 43.9258 37.5977C39.707 35.8203 36.0547 34.375 35.8008 34.375C35.1953 34.375 34.375 35.1953 34.375 35.8008C34.375 36.0547 34.7656 37.207 35.2539 38.3594C35.7422 39.5312 36.1328 40.5078 36.1328 40.5469C36.1328 40.5859 33.8477 40.625 31.0547 40.625H25.957L25.4883 41.1133C24.8438 41.7383 24.8438 42.6367 25.4883 43.2617L25.957 43.75H31.7188H37.4609L38.0664 45.1953C38.3984 45.9961 38.6719 46.6992 38.6719 46.7578C38.6719 46.8164 35.8203 46.875 32.3242 46.875H25.957L25.4883 47.3633C24.9023 47.9297 24.8633 48.8086 25.3711 49.4336L25.7422 49.9023L32.9102 50L40.0781 50.0977L40.4688 51.0742C40.7812 51.875 41.5234 52.7344 44.4922 55.7227L48.1445 59.375H37.0508H25.957L25.4883 59.8633C24.8438 60.4883 24.8438 61.3867 25.4883 62.0117L25.957 62.5H38.6133H51.2695L52.832 64.0625L54.3945 65.625H40.1758H25.957L25.4883 66.1133C25.1758 66.4062 25 66.8164 25 67.1875C25 67.5586 25.1758 67.9688 25.4883 68.2617L25.957 68.75H41.7383H57.5195L63.125 74.3555L68.75 79.9805V88.418V96.875H35.9375H3.125V50V3.125H26.4648H49.8047V11.8359ZM59.7656 12.0117L66.5039 18.75H59.707H52.9297V12.0117C52.9297 8.30078 52.9492 5.27344 52.9883 5.27344C53.0078 5.27344 56.0547 8.30078 59.7656 12.0117ZM43.7305 40.8984C45.918 41.8359 47.8516 42.6562 48.0078 42.7539C48.2422 42.8906 47.7148 43.5156 45.6055 45.6836C44.1211 47.207 42.832 48.3789 42.7734 48.3008C42.6953 48.2031 42.5 47.793 42.3242 47.3633C42.0703 46.6992 39.2383 39.8438 38.9258 39.1016C38.8086 38.8086 38.5547 38.7109 43.7305 40.8984ZM69.7266 63.0664L88.1836 81.4062L84.9609 84.6875C83.1836 86.5039 81.6602 88.0273 81.5625 88.0664C81.4648 88.1055 73.1055 79.8438 62.9688 69.707L44.5312 51.2695L47.793 48.0078C49.5898 46.1914 51.1133 44.7266 51.1719 44.7266C51.2305 44.7266 59.5703 52.9883 69.7266 63.0664ZM93.3594 86.6211L96.1719 89.4531L95.2148 90.4688C92.5977 93.2617 89.7266 96.0938 89.5508 96.0938C89.4336 96.0938 88.0859 94.8242 86.5234 93.2617L83.6914 90.4297L87.0117 87.1094C88.8281 85.2734 90.3711 83.7891 90.4297 83.7891C90.4883 83.7891 91.7969 85.0586 93.3594 86.6211Z" fill="#56647B"/>
<path d="M9.86328 20.8008L9.375 21.2695V26.5625V31.8555L9.86328 32.3242L10.332 32.8125H15.625H20.918L21.3867 32.3242L21.875 31.8555V26.5625V21.2695L21.3867 20.8008L20.918 20.3125H15.625H10.332L9.86328 20.8008ZM18.75 26.5625V29.6875H15.625H12.5V26.5625V23.4375H15.625H18.75V26.5625Z" fill="#56647B"/>
<path d="M25.4883 22.3633C25.1758 22.6562 25 23.0664 25 23.4375C25 23.8086 25.1758 24.2188 25.4883 24.5117L25.957 25H35.1562H44.3555L44.8242 24.5117C45.4688 23.8867 45.4688 22.9883 44.8242 22.3633L44.3555 21.875H35.1562H25.957L25.4883 22.3633Z" fill="#56647B"/>
<path d="M25.4883 28.6133C25.1758 28.9062 25 29.3164 25 29.6875C25 30.0586 25.1758 30.4688 25.4883 30.7617L25.957 31.25H42.1875H58.418L58.8867 30.7617C59.1992 30.4688 59.375 30.0586 59.375 29.6875C59.375 29.3164 59.1992 28.9062 58.8867 28.6133L58.418 28.125H42.1875H25.957L25.4883 28.6133Z" fill="#56647B"/>
<path d="M9.86328 39.5508L9.375 40.0195V45.3125V50.6055L9.86328 51.0742L10.332 51.5625H15.625H20.918L21.3867 51.0742L21.875 50.6055V45.3125V40.0195L21.3867 39.5508L20.918 39.0625H15.625H10.332L9.86328 39.5508ZM18.75 45.3125V48.4375H15.625H12.5V45.3125V42.1875H15.625H18.75V45.3125Z" fill="#56647B"/>
<path d="M9.86328 58.3008L9.375 58.7695V64.0625V69.3555L9.86328 69.8242L10.332 70.3125H15.625H20.918L21.3867 69.8242L21.875 69.3555V64.0625V58.7695L21.3867 58.3008L20.918 57.8125H15.625H10.332L9.86328 58.3008ZM18.75 64.0625V67.1875H15.625H12.5V64.0625V60.9375H15.625H18.75V64.0625Z" fill="#56647B"/>
<path d="M9.86328 77.0508L9.375 77.5195V82.8125V88.1055L9.86328 88.5742L10.332 89.0625H15.625H20.918L21.3867 88.5742L21.875 88.1055V82.8125V77.5195L21.3867 77.0508L20.918 76.5625H15.625H10.332L9.86328 77.0508ZM18.75 82.8125V85.9375H15.625H12.5V82.8125V79.6875H15.625H18.75V82.8125Z" fill="#56647B"/>
<path d="M25.4883 78.6133C25.1758 78.9062 25 79.3164 25 79.6875C25 80.0586 25.1758 80.4688 25.4883 80.7617L25.957 81.25H42.1875H58.418L58.8867 80.7617C59.1992 80.4688 59.375 80.0586 59.375 79.6875C59.375 79.3164 59.1992 78.9062 58.8867 78.6133L58.418 78.125H42.1875H25.957L25.4883 78.6133Z" fill="#56647B"/>
<path d="M25.4883 84.8633C25.1758 85.1562 25 85.5664 25 85.9375C25 86.3086 25.1758 86.7188 25.4883 87.0117L25.957 87.5H42.1875H58.418L58.8867 87.0117C59.1992 86.7188 59.375 86.3086 59.375 85.9375C59.375 85.5664 59.1992 85.1562 58.8867 84.8633L58.418 84.375H42.1875H25.957L25.4883 84.8633Z" fill="#56647B"/>
</svg>
