<svg width="150" height="100" viewBox="0 0 150 100" fill="none" xmlns="http://www.w3.org/2000/svg">
<path d="M7.53995 0.816995C7.01708 1.30719 6.72296 1.99347 6.72296 2.61438C6.72296 3.2353 7.01708 3.92157 7.53995 4.41177C8.32427 5.22876 8.38963 5.22876 14.5661 5.22876C20.7426 5.22876 20.8079 5.22876 21.5922 4.41177C22.1151 3.92157 22.4092 3.2353 22.4092 2.61438C22.4092 1.99347 22.1151 1.30719 21.5922 0.816995C20.8079 1.90735e-06 20.7426 1.90735e-06 14.5661 1.90735e-06C8.38963 1.90735e-06 8.32427 1.90735e-06 7.53995 0.816995Z" fill="#56647B"/>
<path d="M24.5285 0.816995C24.0057 1.30719 23.7115 1.99347 23.7115 2.61438C23.7115 3.2353 24.0057 3.92157 24.5285 4.41177L25.3129 5.22876H41.6854H58.0579L58.8423 4.41177C59.9207 3.36601 59.9207 1.86275 58.8423 0.816995L58.0579 1.90735e-06H41.6854H25.3129L24.5285 0.816995Z" fill="#56647B"/>
<path d="M14.0677 19.0877C12.9893 20.1661 12.9893 21.6694 14.0677 22.7152L14.852 23.5322H47.1396C66.6821 23.5322 80.8324 23.6629 83.0219 23.859C88.218 24.3492 92.8912 25.5583 96.7474 27.4211C100.473 29.2184 102.891 30.8851 108.774 35.7217L112.924 39.1531L116.127 39.5452C128.055 40.9831 138.153 45.0028 141.747 49.7413C143.839 52.4864 143.97 53.0746 143.97 59.3165C143.97 64.9701 143.97 65.0681 143.153 65.8524C142.401 66.6367 142.172 66.6694 138.479 66.6694H134.558L134.362 65.5583C133.937 63.3688 131.944 59.9701 129.983 58.1073C123.708 52.1269 114.558 52.1269 108.283 58.1073C106.323 59.9701 104.329 63.3688 103.904 65.5583L103.708 66.6694H79.9174H56.1265L55.9304 65.5583C55.5056 63.3688 53.5121 59.9701 51.5514 58.1073C45.2769 52.1269 36.1265 52.1269 29.852 58.1073C27.8912 59.9701 25.8978 63.3688 25.4729 65.5583L25.2769 66.6694H18.4141C11.6167 66.6694 11.584 66.6694 10.7997 67.4864C9.7213 68.5322 9.7213 70.0354 10.7997 71.0812C11.584 71.8982 11.6167 71.8982 18.4141 71.8982H25.2769L25.4729 73.0093C25.8978 75.1988 27.8912 78.5975 29.852 80.4603C36.1265 86.4407 45.2769 86.4407 51.5514 80.4603C53.5121 78.5975 55.5056 75.1988 55.9304 73.0093L56.1265 71.8982H79.9174H103.708L103.904 73.0093C104.329 75.1988 106.323 78.5975 108.283 80.4603C114.558 86.4407 123.708 86.4407 129.983 80.4603C131.944 78.5975 133.937 75.1988 134.362 73.0093L134.558 71.8982H138.479C143.479 71.8982 144.656 71.5387 146.78 69.4472C149.068 67.1596 149.264 66.2773 149.133 58.4995C149.035 52.1269 149.035 52.1269 148.022 49.9701C146.845 47.4864 143.708 43.957 141.028 42.1596C135.604 38.4668 128.153 35.9831 118.218 34.5126L114.819 34.0224L112.172 31.7675C102.924 23.8916 96.6821 20.7217 87.2703 19.055C84.7213 18.5975 79.6233 18.4995 49.6233 18.4014L14.8847 18.2707L14.0677 19.0877ZM44.9827 59.774C47.2376 60.8524 48.6429 62.1923 49.8847 64.4472C50.8978 66.3426 50.9958 66.7348 50.9958 69.2838C50.9958 71.8328 50.8978 72.225 49.8847 74.1204C48.6429 76.408 47.5971 77.3884 45.1461 78.6956C43.7409 79.4145 43.0546 79.5452 40.7017 79.5452C38.1527 79.5779 37.7605 79.4799 35.8651 78.4668C33.6102 77.2576 32.303 75.8524 31.1592 73.5322C30.1135 71.3753 30.1461 67.1269 31.2246 64.872C32.5971 62.0616 35.2442 59.9047 38.2507 59.1204C39.852 58.6956 43.4141 59.055 44.9827 59.774ZM123.414 59.774C125.669 60.8524 127.074 62.1923 128.316 64.4472C129.329 66.3426 129.427 66.7348 129.427 69.2838C129.427 71.8328 129.329 72.225 128.316 74.1204C127.074 76.408 126.028 77.3884 123.577 78.6956C122.172 79.4145 121.486 79.5452 119.133 79.5452C116.584 79.5779 116.192 79.4799 114.296 78.4668C112.042 77.2576 110.734 75.8524 109.591 73.5322C108.545 71.3753 108.577 67.1269 109.656 64.872C111.028 62.0616 113.676 59.9047 116.682 59.1204C118.283 58.6956 121.845 59.055 123.414 59.774Z" fill="#56647B"/>
<path d="M1.65305 32.1869C1.13018 32.6771 0.83606 33.3633 0.83606 33.9843C0.83606 34.6052 1.13018 35.2914 1.65305 35.7816L2.43737 36.5986H18.1563H33.8753L34.6596 35.7816C35.1825 35.2914 35.4766 34.6052 35.4766 33.9843C35.4766 33.3633 35.1825 32.6771 34.6596 32.1869L33.8753 31.3699H18.1563H2.43737L1.65305 32.1869Z" fill="#56647B"/>
<path d="M102.702 37.5767C102.081 38.0996 100.937 38.8512 100.152 39.2107C98.7799 39.8316 97.963 39.8643 76.7211 39.8643H54.7277L53.9433 40.6813C52.8649 41.727 52.8649 43.2303 53.9433 44.276L54.7277 45.093H76.7211C100.054 45.093 100.316 45.0603 103.355 43.5244C104.107 43.1322 105.316 42.2499 106.068 41.5636C107.669 40.0277 107.832 38.6551 106.558 37.4133C105.447 36.3022 104.074 36.3348 102.702 37.5767Z" fill="#56647B"/>
<path d="M59.1663 95.587C58.6434 96.0772 58.3493 96.7635 58.3493 97.3844C58.3493 98.0053 58.6434 98.6916 59.1663 99.1818C59.9506 99.9988 59.9833 99.9988 66.5192 99.9988C73.0552 99.9988 73.0879 99.9988 73.8722 99.1818C74.3951 98.6916 74.6892 98.0053 74.6892 97.3844C74.6892 96.7635 74.3951 96.0772 73.8722 95.587C73.0879 94.77 73.0552 94.77 66.5192 94.77C59.9833 94.77 59.9506 94.77 59.1663 95.587Z" fill="#56647B"/>
<path d="M77.4644 95.587C76.9415 96.0772 76.6474 96.7635 76.6474 97.3844C76.6474 98.0053 76.9415 98.6916 77.4644 99.1818L78.2487 99.9988H93.9676H109.687L110.471 99.1818C110.994 98.6916 111.288 98.0053 111.288 97.3844C111.288 96.7635 110.994 96.0772 110.471 95.587L109.687 94.77H93.9676H78.2487L77.4644 95.587Z" fill="#56647B"/>
</svg>
