<svg width="100" height="97" viewBox="0 0 100 97" fill="none" xmlns="http://www.w3.org/2000/svg">
<path d="M48.496 0.942308C47.3436 1.31343 46.5623 1.93847 45.9763 2.93464L45.4684 3.79408H44.2574C42.5971 3.79408 41.308 4.26286 40.3313 5.25903C38.9445 6.62631 38.8664 7.0951 38.8664 13.9315L38.8469 19.9085L38.0851 20.2601C36.8155 20.8461 36.5225 21.5493 36.5225 23.9908V26.0613H22.0292C7.84852 26.0613 7.49694 26.0808 6.6375 26.4715C5.46554 26.9989 4.91862 27.5263 4.37171 28.6982L3.90293 29.6749V56.8643V84.0733H3.41461C2.71143 84.0733 1.50041 84.7374 0.91443 85.4406C0.133123 86.3586 -0.0622033 87.2767 0.0159274 89.7573C0.094058 91.7106 0.152656 92.1208 0.640972 93.0974C1.32462 94.5037 2.78956 95.8515 4.15685 96.3203C5.13348 96.6523 7.14535 96.6719 50 96.6719C92.8547 96.6719 94.8665 96.6523 95.8431 96.3203C97.2104 95.8515 98.6754 94.5037 99.359 93.0974C99.8473 92.1208 99.9059 91.7106 99.9841 89.7573C100.062 87.2767 99.8669 86.3586 99.0856 85.4406C98.4996 84.7374 97.2886 84.0733 96.5854 84.0733H96.0971V68.7792V53.4656L95.6478 53.0554C95.0032 52.4499 94.0852 52.489 93.5774 53.1336C93.1672 53.6414 93.1672 53.7782 93.1672 68.8574V84.0733H50H6.83283V57.0206V29.9483L7.32114 29.4795L7.78993 28.9912H22.3027H36.835L37.167 30.2999C37.3428 31.0421 37.4991 31.6867 37.4991 31.7648C37.4991 31.8625 31.8737 31.9211 25.0177 31.9211C16.6578 31.9211 12.341 31.9992 11.9699 32.136C11.2277 32.4094 10.3487 33.2493 10.0362 34.0111C9.80179 34.5385 9.76272 38.3669 9.76272 56.4932V78.3502L10.212 79.1901C10.5245 79.7761 10.9347 80.1863 11.5207 80.4988C12.3606 80.9481 12.3996 80.9481 20.2518 80.9481C27.8695 80.9481 28.143 80.9286 28.5141 80.5574C29.1001 79.9715 29.1001 79.1315 28.4945 78.5065C28.1234 78.1354 27.7914 78.1158 20.4471 78.0182L12.7903 77.9205V56.4346V34.9487L25.8186 34.8901L38.8273 34.851L39.4133 35.8862C40.9368 38.5817 43.3784 41.2773 46.0349 43.1719C48.1835 44.7345 51.7189 46.2581 54.5511 46.8636L55.0785 46.9613V50.3404C55.098 52.1765 55.1762 54.0711 55.2543 54.5399C55.4301 55.4775 56.4262 56.669 57.1685 56.8448C57.6177 56.962 57.6177 57.0206 57.6177 59.7356C57.6177 63.0171 57.3638 63.7984 56.0356 64.6774C55.2152 65.2243 55.1762 65.2243 52.0509 65.2243C48.9452 65.2243 48.8866 65.2243 48.0858 64.6969C46.8162 63.857 46.6208 63.2906 46.4646 60.1458C46.3279 57.001 46.0153 56.0439 44.609 54.6376C43.0073 53.0554 42.5776 52.9187 38.4171 52.8601C35.4091 52.8015 34.5887 52.8406 33.7879 53.114C32.3425 53.6024 31.0533 54.6962 30.2915 56.1416C29.7251 57.1768 29.6274 57.6261 29.5102 59.2082L29.393 61.0443L28.2602 61.5131C22.5566 63.8179 22.0683 71.7873 27.4788 74.639C29.7642 75.8501 32.1472 75.8696 34.4325 74.6586C39.8626 71.7677 39.3938 63.8375 33.6512 61.5131L32.5183 61.0443L32.4597 59.7551C32.3815 58.0363 32.8894 56.9229 34.0614 56.2393C34.8622 55.7705 35.0575 55.751 37.9679 55.751C41.4838 55.751 42.1869 55.9658 42.9878 57.255C43.398 57.9191 43.4761 58.3097 43.5542 60.7318C43.6519 63.2124 43.7105 63.5835 44.1988 64.5797C44.8434 65.8884 45.9567 66.9432 47.4412 67.6463C48.496 68.1347 48.6522 68.1542 52.0509 68.1542H55.5668L56.8755 67.5096C58.3014 66.8064 59.278 65.8298 59.9812 64.3649C60.3914 63.564 60.45 63.0952 60.5086 60.1849C60.5867 56.9815 60.5867 56.9229 61.036 56.8057C61.2703 56.7471 61.7782 56.3955 62.1298 56.0244L62.7939 55.3408L62.8916 51.2194L62.9892 47.0785L64.9425 46.5315C67.2473 45.8674 69.6303 44.7736 71.5055 43.543C74.201 41.746 77.3653 38.3278 78.713 35.769L79.2013 34.851L83.2055 34.8901L87.2097 34.9487V56.4346V77.9205L60.5281 78.0182C34.6278 78.1158 33.8074 78.1354 33.4168 78.487C32.8894 78.9753 32.8699 80.03 33.3972 80.5574C33.7879 80.9481 34.0418 80.9481 60.7039 80.9481H87.6394L88.4793 80.4988C89.0653 80.1863 89.4755 79.7761 89.788 79.1901L90.2373 78.3502V56.5127C90.2373 41.5702 90.1787 34.4994 90.0224 34.1283C89.749 33.3861 88.9091 32.5071 88.1473 32.1946C87.6785 31.9992 86.5456 31.9211 83.9868 31.9211C82.0531 31.9211 80.4709 31.9016 80.4709 31.8625C80.4709 31.8234 80.5881 31.4133 80.7444 30.9249C80.9007 30.4562 81.0765 29.8311 81.1351 29.5186L81.2523 28.9912H86.7409H92.2101L92.6789 29.4795L93.1672 29.9483V38.6403C93.1672 44.6759 93.2258 47.4886 93.382 47.8207C93.8313 48.8169 95.3939 48.895 95.8822 47.9574C96.0189 47.7035 96.0971 44.5587 96.0971 38.6208V29.6749L95.6283 28.6982C95.0814 27.5263 94.5345 26.9989 93.3625 26.4715C92.5421 26.1004 92.0929 26.0613 87.073 26.0613H81.682L81.6038 23.8346L81.5452 21.5883L80.8616 20.8852C80.4905 20.4945 79.9826 20.1429 79.7482 20.0843L79.3185 19.9671L79.2599 13.6971C79.2013 7.91547 79.1623 7.34902 78.8107 6.62631C77.9122 4.80977 76.1738 3.79408 73.908 3.79408H72.6969L72.2086 2.95417C69.8842 -0.991425 63.8487 0.688384 63.8487 5.25903C63.8487 7.8764 65.7043 9.73201 68.3607 9.75154C70.021 9.75154 71.2515 9.06789 72.1305 7.68108L72.7165 6.72398H73.8689C74.9432 6.72398 75.0995 6.78257 75.705 7.38809L76.3691 8.0522V13.9901V19.9281L75.6854 20.182C75.2557 20.3382 74.7869 20.7289 74.4744 21.1977C74.0252 21.8813 73.947 22.2329 73.8689 24.0299L73.7712 26.0613H59.0827H44.3941L44.2965 24.0299C44.2183 22.2329 44.1402 21.8813 43.691 21.1977C43.3784 20.7289 42.9096 20.3382 42.4799 20.182L41.7963 19.9281V13.9901V8.0522L42.4604 7.38809C43.0659 6.78257 43.2222 6.72398 44.2965 6.72398H45.4489L46.0349 7.68108C46.4255 8.28659 46.9724 8.8335 47.578 9.18509C49.8633 10.5328 52.9885 9.49761 53.9847 7.07556C54.3753 6.17706 54.3948 4.38006 54.0433 3.54015C53.1448 1.41109 50.6446 0.239132 48.496 0.942308ZM51.0352 4.20426C51.5235 4.80977 51.4649 5.86454 50.879 6.43099C50.3321 6.99743 49.8242 7.0365 49.0429 6.62631C48.4179 6.31379 48.2421 5.98173 48.2421 5.20043C48.2616 3.79408 50.1367 3.12997 51.0352 4.20426ZM69.3178 4.1066C70.9195 5.43482 68.9662 7.8178 67.345 6.52865C66.1535 5.59108 66.8567 3.67688 68.3998 3.61828C68.5756 3.59875 68.9857 3.83314 69.3178 4.1066ZM41.4252 25.28C41.4838 26.6278 41.6986 28.288 41.8744 28.9912C43.2417 34.1283 46.7185 38.3474 51.4649 40.6327C54.1605 41.9414 55.8403 42.332 58.985 42.332C61.8954 42.3515 63.2822 42.0976 65.7629 41.1015C69.4936 39.5974 73.1071 36.2964 74.9041 32.7024C76.1347 30.2608 76.5839 28.4248 76.7402 25.28L76.8574 22.8384L77.795 22.7798L78.713 22.7212V24.7331C78.713 29.9288 76.7011 34.7143 72.9704 38.4841C70.1968 41.2773 67.3645 42.8789 63.5557 43.836C60.2351 44.6759 60.0789 44.9494 60.0007 50.2427L59.9226 54.2079L59.0241 54.1493L58.1061 54.0907L58.0084 49.9888C57.8717 44.6173 57.9303 44.6955 54.1409 43.7384C50.5469 42.8203 46.5623 40.3787 44.2769 37.7028C41.1126 34.0111 39.4524 29.5967 39.4524 24.8893V22.7212L40.3899 22.7798L41.308 22.8384L41.4252 25.28ZM73.2439 29.0889C73.2439 29.1475 72.9704 29.792 72.6384 30.5538L72.0133 31.9211H59.1022H46.1716L45.82 31.1789C45.6247 30.7882 45.3512 30.1241 45.195 29.7139L44.941 28.9912H59.0827C66.8762 28.9912 73.2439 29.0303 73.2439 29.0889ZM68.849 35.7495C65.8215 38.4841 61.368 39.8904 57.3638 39.3826C54.3362 38.9919 51.4649 37.7028 49.3164 35.7495L48.3397 34.8705H59.0827H69.8256L68.849 35.7495ZM33.4363 64.6774C34.5301 65.4587 35.3505 66.9822 35.3505 68.2323C35.3505 70.9864 32.655 73.1741 30.0376 72.549C27.8695 72.0217 26.4045 70.0489 26.6194 67.9198C26.7757 66.4353 27.5179 65.2634 28.768 64.5211C29.686 63.9937 29.9204 63.9351 31.19 63.9937C32.3815 64.0523 32.7136 64.15 33.4363 64.6774ZM38.8664 88.4486C38.8664 89.6011 38.9445 89.9917 39.3156 90.5386C40.2141 91.9059 40.0969 91.8864 50 91.8864C59.9031 91.8864 59.7859 91.9059 60.6844 90.5386C61.0555 89.9917 61.1336 89.6011 61.1336 88.4486V87.0032H78.8693C92.4054 87.0032 96.6635 87.0618 96.8393 87.2376C96.9956 87.3939 97.0737 88.1166 97.0737 89.2299C97.0542 91.8082 96.4682 92.9607 94.7884 93.5662C93.675 93.9568 6.32498 93.9568 5.21161 93.5662C3.53181 92.9607 2.94583 91.8082 2.92629 89.2299C2.92629 88.1166 3.00442 87.3939 3.16069 87.2376C3.33648 87.0618 7.5946 87.0032 21.1307 87.0032H38.8664V88.4486ZM58.2037 87.9798V88.9565H50H41.7963V87.9798V87.0032H50H58.2037V87.9798Z" fill="#FF4D4D"/>
<path d="M29.9007 67.3921C29.2366 68.2516 29.3929 69.0719 30.3109 69.5407C31.7759 70.3025 33.1627 68.4273 31.9712 67.314C31.3266 66.7085 30.4086 66.7475 29.9007 67.3921Z" fill="#56647B"/>
</svg>
