<svg width="100" height="98" viewBox="0 0 100 98" fill="none" xmlns="http://www.w3.org/2000/svg">
<path d="M63.5455 1.53268C62.1082 1.92847 54.5256 3.94909 46.6723 6.0322C38.8189 8.11532 32.1113 9.99012 31.7572 10.2193C31.3822 10.4484 30.9239 10.865 30.7365 11.1775C30.3407 11.7608 2.01033 64.9427 0.76046 67.4424C-0.385252 69.713 -0.239434 71.5878 1.21875 72.9626C1.53121 73.2543 10.4469 78.1079 21.05 83.7323C31.653 89.3776 41.6312 94.6895 43.2143 95.5436C46.7348 97.4184 47.5055 97.6475 48.8179 97.2726C50.651 96.7726 50.8593 96.481 56.9004 85.0864C60.0042 79.2328 62.5873 74.4208 62.6289 74.3792C62.9206 74.0667 65.4203 75.9832 65.4203 76.5248C65.4203 76.6498 63.858 78.5871 61.9623 80.816C60.0459 83.0449 58.3586 85.1905 58.1919 85.5655C57.9628 86.1071 57.9628 86.4196 58.1502 87.1278C58.3377 87.8569 59.0252 88.6485 62.1498 91.8148C66.2119 95.8977 66.6702 96.2102 68.1492 95.8144C68.5658 95.6894 69.0866 95.3978 69.3157 95.1478C69.5657 94.877 70.8989 91.7732 72.2946 88.2319C73.6694 84.6906 74.8568 81.7117 74.9193 81.6076C74.9818 81.5242 75.6484 81.7742 76.3983 82.17C78.2523 83.1491 79.273 83.1491 81.1478 82.1492C81.9186 81.7534 82.5643 81.4409 82.606 81.4826C82.6268 81.5242 83.7517 84.3989 85.1266 87.8986C86.4806 91.3774 87.793 94.5229 88.0221 94.877C88.5845 95.7103 89.8344 96.1269 90.8343 95.8352C91.8967 95.5228 99.2709 88.0861 99.4792 87.107C99.7709 85.6905 99.8125 85.753 93.0632 77.8371L92.0425 76.6706L92.4175 76.0665C92.6049 75.7332 93.3757 75.1083 94.1464 74.6708C97.3336 72.8585 97.5628 72.5044 97.7086 69.0464L97.8336 66.5467L98.9168 64.6719C99.8542 63.047 100 62.6721 100 61.6722C100 60.7139 99.8334 60.2557 98.8543 58.4225L97.7086 56.2769V54.173C97.7086 52.8606 97.6044 51.7982 97.4169 51.3816C97.0628 50.5275 96.0213 49.5901 94.3131 48.6527C92.7508 47.7778 92.6258 47.632 91.5009 45.7155C90.5635 44.0907 89.7719 43.2574 88.897 42.9242C88.5637 42.7992 87.3763 42.695 86.2514 42.695C84.2517 42.695 84.1475 42.6742 82.5643 41.8409C81.6686 41.3826 80.8562 40.9035 80.752 40.7994C80.627 40.6952 80.8145 40.1119 81.2103 39.3412C82.231 37.3831 82.1477 36.7581 80.2312 31.342C79.3355 28.8215 78.6273 26.7175 78.6689 26.6967C78.6897 26.655 79.4188 26.7592 80.2521 26.9258C84.335 27.7799 89.0637 27.8841 91.7717 27.1758C94.5631 26.4467 96.2296 25.1135 96.792 23.1762C97.4586 20.8431 96.5629 18.6559 93.8965 16.1145C89.0428 11.4483 81.3561 8.17781 72.3571 6.94877C71.753 6.86545 71.6697 6.74046 71.2322 5.44893C70.5239 3.26166 69.8157 2.11595 68.8574 1.53268C67.4826 0.741096 66.5035 0.741096 63.5455 1.53268ZM67.9617 3.69912C68.3367 4.07408 74.8985 22.6763 74.711 22.8429C74.3985 23.1554 68.3783 20.1349 66.7743 18.8642C66.2327 18.4267 66.2327 18.3851 66.4827 17.4268C66.7743 16.2186 66.6285 14.4688 66.1494 13.5106C65.6495 12.5315 64.4412 11.2817 63.4414 10.7609C62.7748 10.4067 62.254 10.3026 60.8375 10.3026C59.2751 10.3026 58.9418 10.3651 58.0878 10.865C54.5881 12.9273 53.9632 17.3019 56.7754 20.1141C58.8585 22.1972 61.754 22.4263 64.3996 20.6973C64.9204 20.364 64.962 20.3849 66.3785 21.3431C68.0034 22.4471 72.1279 24.4886 74.1694 25.1969C74.9193 25.4677 75.6276 25.7801 75.7734 25.9051C76.1067 26.2176 79.5855 36.3415 79.5855 36.9873C79.5855 37.8414 78.2106 40.3411 77.669 40.4661C77.3982 40.5494 76.44 41.0493 75.5234 41.5701L73.8569 42.5492L71.3988 42.6533C69.1074 42.7367 68.8991 42.7158 68.4617 42.2992C68.045 41.9034 60.4 37.7789 41.1937 27.5924C35.111 24.3844 34.9652 24.3219 33.9445 24.4053C33.0904 24.4886 32.7571 24.6552 32.1946 25.2177C31.4239 26.0093 10.0928 65.9842 9.8845 67.0258C9.71785 67.859 10.0928 68.9631 10.8011 69.6297C11.4468 70.2338 43.2976 87.232 44.36 87.5236C45.1933 87.7736 46.589 87.3153 47.2347 86.5862C47.4639 86.3362 50.1094 81.4826 53.1091 75.8165C56.1296 70.1504 58.6502 65.4218 58.7543 65.3176C58.8585 65.2343 59.1293 65.5259 59.3584 65.9842C59.7126 66.6925 59.7959 67.2341 59.7959 68.9631C59.7959 70.7129 59.8792 71.2753 60.2334 72.0252C60.775 73.1293 61.4624 71.6503 54.7964 84.2115C51.6718 90.0858 49.3178 94.2729 48.9429 94.6062C48.6096 94.9395 48.1305 95.1895 47.9013 95.1895C47.5055 95.1895 43.6934 93.1897 18.6544 79.8786C14.3007 77.5663 8.92627 74.7125 6.71817 73.5251C4.51007 72.3585 2.61443 71.2337 2.51028 71.0254C2.38529 70.817 2.30196 70.3379 2.30196 69.9838C2.30196 69.1714 32.2363 12.7815 32.9654 12.2399C33.6737 11.7191 66.2119 3.11585 66.9826 3.24083C67.3159 3.28249 67.7742 3.49081 67.9617 3.69912ZM77.8565 10.3234C83.2934 11.6983 88.9387 14.573 92.3758 17.6976C95.688 20.739 95.4588 23.6345 91.8134 24.8636C90.376 25.3427 87.1472 25.4885 84.5016 25.2177C82.0227 24.9469 78.5439 24.2803 77.9607 23.9678C77.7107 23.8428 76.7733 21.4264 75.1485 16.7186C73.7944 12.844 72.7112 9.59433 72.7112 9.49017C72.7112 9.21937 74.8776 9.55267 77.8565 10.3234ZM59.7959 13.5106C59.7959 14.3438 60.8791 16.3644 61.9832 17.6351C62.504 18.2184 62.9206 18.76 62.9206 18.8434C62.9206 19.0725 61.4832 19.5724 60.775 19.5724C59.6501 19.5724 58.3169 18.7392 57.7753 17.6976C57.192 16.5936 57.1712 15.5937 57.7336 14.448C58.1294 13.5939 59.296 12.6148 59.6293 12.8232C59.7126 12.8856 59.7959 13.1981 59.7959 13.5106ZM62.9414 13.1356C63.2747 13.3648 63.733 13.9272 63.9621 14.3647C64.3788 15.1979 64.5246 16.6561 64.1913 16.6561C63.733 16.6561 61.879 13.5522 61.879 12.7815C61.879 12.5732 62.3998 12.7398 62.9414 13.1356ZM35.8818 27.3633C36.6108 27.7591 43.8601 31.6128 51.9842 35.9249C60.1292 40.2578 66.816 43.8407 66.8785 43.8824C66.9826 43.9865 66.0452 45.7988 65.2328 46.9654C64.8787 47.4862 64.1079 48.1319 63.0872 48.736C60.1709 50.465 59.9417 50.84 59.7751 54.2563L59.6709 56.756L58.6502 58.5058C57.8169 59.9224 57.6086 60.4848 57.5253 61.568C57.4003 62.7971 57.0254 63.5886 51.4634 74.025C48.2138 80.1702 45.4016 85.2322 45.2349 85.2947C44.9016 85.4197 12.7592 68.4631 12.3426 67.9423C12.1968 67.7549 12.1343 67.4632 12.1968 67.2757C12.3426 66.88 32.8196 28.2799 33.382 27.3216C33.9028 26.4676 34.2569 26.4884 35.8818 27.3633ZM81.252 43.7366C82.9601 44.7365 83.9392 44.9656 86.2723 44.9864C87.3555 44.9864 88.1887 45.0906 88.3971 45.2364C88.5845 45.3822 89.2511 46.3405 89.8552 47.382C90.9385 49.1943 91.0426 49.2985 92.9174 50.4442C93.9798 51.1108 94.9589 51.7357 95.0839 51.8607C95.2088 51.9857 95.3547 53.2356 95.4171 54.6521L95.5421 57.2143L96.6254 59.0891C97.2503 60.1932 97.7086 61.2347 97.7086 61.5888C97.7086 61.943 97.2503 63.047 96.6254 64.1719L95.5213 66.13L95.4588 68.5256C95.3963 69.9213 95.2713 71.067 95.1255 71.2753C95.0005 71.442 94.0631 72.0877 93.0841 72.671C91.1676 73.7959 90.7301 74.2542 89.4803 76.4831C89.0428 77.233 88.4595 77.9621 88.1887 78.0871C87.9179 78.2121 86.8139 78.3163 85.7515 78.3163C83.5226 78.3163 83.0435 78.4621 80.8562 79.6911C79.9813 80.1911 79.0439 80.6077 78.7522 80.6077C78.4814 80.6077 77.3982 80.1286 76.3567 79.5245L74.4819 78.4412L71.9613 78.3163C70.2115 78.2538 69.3366 78.1288 69.0866 77.9205C68.8783 77.7538 68.3158 76.8997 67.8159 76.0248C66.7327 74.15 66.2119 73.6501 64.2538 72.5252C63.4414 72.0461 62.6498 71.5045 62.4831 71.317C62.2748 71.067 62.1498 70.1713 62.0665 68.4423L61.9623 65.9217L60.8791 64.0261C60.275 63.0054 59.7959 61.8805 59.7959 61.568C59.7959 61.2555 60.1917 60.339 60.65 59.5474C61.879 57.4851 62.0665 56.8185 62.0873 54.5063C62.0873 53.3814 62.1707 52.2773 62.2956 52.069C62.3998 51.8607 63.2747 51.2566 64.2121 50.715C66.4827 49.4235 66.5035 49.3818 67.8367 47.132C68.6283 45.7988 69.1074 45.1739 69.4407 45.1114C69.6907 45.0489 70.8989 44.9656 72.1279 44.9239L74.336 44.8406L76.19 43.7991C77.2107 43.2158 78.2315 42.695 78.4398 42.6533C79.0022 42.5284 79.5647 42.7575 81.252 43.7366ZM67.2118 79.3786C67.9409 80.2119 69.1491 80.6077 71.0031 80.6077C71.9405 80.6077 72.7112 80.6702 72.7112 80.7535C72.7112 81.066 67.8576 93.2313 67.6284 93.4605C67.4409 93.6688 66.5869 92.9397 63.7747 90.1067L60.15 86.4612L61.3582 85.0447C62.0248 84.274 63.4622 82.5658 64.5662 81.2951C65.6703 80.0036 66.6285 78.9412 66.691 78.9412C66.7535 78.9412 66.9826 79.1495 67.2118 79.3786ZM94.1048 82.5866C95.7921 84.5864 97.2086 86.2946 97.2295 86.3779C97.2503 86.4821 95.688 88.1902 93.7507 90.19C90.6676 93.3772 90.1885 93.7938 89.9386 93.523C89.7094 93.2938 86.2723 84.7531 84.8766 80.9618C84.7516 80.6493 84.9183 80.6077 86.4806 80.6077C88.3554 80.6077 89.5636 80.2119 90.2927 79.3786C90.5218 79.1495 90.751 78.9412 90.8551 78.9412C90.9385 78.9412 92.3966 80.5868 94.1048 82.5866Z" fill="#FF4D4D"/>
<path d="M34.8402 42.0494C32.3196 42.6951 30.7989 45.674 31.778 48.0696C33.007 51.0068 36.7566 51.84 38.9856 49.6527C40.5479 48.1112 40.8395 45.9864 39.7147 44.07C38.7981 42.4868 36.6525 41.6119 34.8402 42.0494ZM36.8816 44.4658C38.6939 45.4032 38.5064 47.9654 36.5692 48.507C33.9236 49.2153 32.5696 45.549 35.0901 44.4449C35.9234 44.0908 36.1525 44.0908 36.8816 44.4658Z" fill="#FF4D4D"/>
<path d="M47.0471 43.0489C45.8597 44.4238 36.8815 57.6099 36.8815 57.9848C36.8815 58.7139 37.6106 59.2764 38.2355 59.0264C38.8813 58.7972 48.9635 44.4863 48.9635 43.7988C48.9635 42.8198 47.6928 42.3198 47.0471 43.0489Z" fill="#FF4D4D"/>
<path d="M48.8597 50.5068C47.7348 50.9026 46.3808 52.4233 46.0683 53.6107C45.61 55.4438 46.3183 57.2978 47.8806 58.4227C48.7139 58.9851 48.943 59.0476 50.422 59.0476C51.901 59.0476 52.1302 58.9851 52.9426 58.4227C54.7132 57.1728 55.3798 54.6522 54.4216 52.7774C53.3384 50.6527 51.0886 49.7153 48.8597 50.5068ZM51.4219 52.7774C51.9635 53.0482 52.2968 53.5482 52.5885 54.4231C52.7551 54.9439 52.2343 56.1104 51.6511 56.527C50.5262 57.3186 48.5889 56.5895 48.2556 55.2772C48.0473 54.4439 48.5056 53.3399 49.2555 52.8816C50.0262 52.4025 50.6512 52.3816 51.4219 52.7774Z" fill="#FF4D4D"/>
<path d="M21.9874 58.86C21.7999 59.0475 21.6749 59.4433 21.7166 59.7558C21.779 60.2557 22.8206 60.8181 34.1736 66.4842C40.9854 69.9005 46.8181 72.6919 47.1097 72.6919C47.818 72.6919 48.1721 72.2544 48.0888 71.5045C48.0263 70.9629 47.318 70.5671 35.6318 64.7344C28.82 61.3181 23.0289 58.5267 22.7789 58.5267C22.529 58.5267 22.1748 58.6725 21.9874 58.86Z" fill="#FF4D4D"/>
<path d="M18.3625 64.3385C17.8417 64.8593 17.8209 65.1509 18.2167 65.7133C18.3625 65.9425 22.6746 68.1923 27.7782 70.692C37.673 75.5456 37.9646 75.6498 38.2563 74.4208C38.3396 74.1291 38.2979 73.7333 38.1938 73.5459C37.9855 73.2126 20.1957 64.2552 19.2999 64.026C18.9458 63.9427 18.6542 64.0469 18.3625 64.3385Z" fill="#FF4D4D"/>
<path d="M76.9817 46.5696C76.7526 46.6113 76.0443 46.7571 75.4194 46.8821C70.2324 47.9236 65.5454 52.4856 64.1497 57.8392C63.629 59.8807 63.5665 63.047 64.0456 65.0468C65.2329 70.088 68.9617 74.1709 74.0029 75.9623C76.0651 76.6914 79.9397 76.8789 82.1478 76.3373C89.8762 74.5042 95.0006 66.9008 93.6675 59.1933C93.0425 55.6311 91.6677 53.0897 88.9388 50.5275C87.1681 48.861 84.8559 47.5695 82.6061 46.9654C81.3562 46.6529 77.7525 46.3821 76.9817 46.5696ZM81.3562 49.0485C86.4182 50.1109 90.4595 54.2771 91.376 59.4016C92.3759 64.9427 89.5429 70.5462 84.4393 73.0876C82.5645 74.025 81.0438 74.3583 78.7524 74.3583C75.1486 74.3583 72.3364 73.1918 69.7741 70.6296C67.1494 68.0257 65.962 65.1301 66.0037 61.443C66.0245 56.3811 68.9617 51.944 73.6696 49.8609C76.1276 48.7777 78.7107 48.5069 81.3562 49.0485Z" fill="#FF4D4D"/>
<path d="M77.7109 54.298C77.1693 54.5688 76.7735 55.0479 76.1903 56.1728L75.4195 57.6518L74.0863 57.7976C72.4615 57.9851 71.5449 58.5059 71.1283 59.485C70.67 60.589 70.92 61.3598 72.2532 62.7346L73.3989 63.9428L73.1281 65.4635C72.899 66.8384 72.9198 67.0883 73.2323 67.7758C73.9613 69.2756 75.3779 69.5256 77.4193 68.484L78.7525 67.8174L80.1065 68.484C81.6689 69.2548 82.5438 69.3173 83.4603 68.7548C84.4602 68.1507 84.6894 67.3591 84.3769 65.4635L84.1269 63.8803L85.2935 62.7138C86.6267 61.3598 86.9391 60.464 86.3975 59.4433C85.8559 58.4017 85.3351 58.0893 83.6687 57.8393L82.1063 57.5893L81.4189 56.2353C80.3773 54.2147 79.1483 53.5689 77.7109 54.298ZM80.8148 59.5683C81.0439 59.6724 81.9397 59.8808 82.7937 60.0057C83.6687 60.1307 84.3769 60.2974 84.3769 60.3807C84.3769 60.464 83.8145 61.0681 83.127 61.7556C81.7522 63.1304 81.648 63.4845 82.1063 65.6093C82.2313 66.1926 82.273 66.7342 82.2105 66.8175C82.1271 66.88 81.3981 66.5884 80.5648 66.1718C79.7524 65.7343 78.94 65.401 78.815 65.401C78.6692 65.401 77.8568 65.7551 77.0027 66.1718C76.1278 66.5884 75.3779 66.9008 75.3362 66.8384C75.2737 66.7759 75.3362 66.0051 75.5028 65.151C75.8361 63.1721 75.6695 62.7138 74.1905 61.4639C73.5864 60.964 73.1698 60.4849 73.2739 60.3807C73.3572 60.2974 74.0863 60.1099 74.8779 59.9849C75.6695 59.8599 76.4819 59.6724 76.6902 59.5475C76.9194 59.4433 77.3776 58.7559 77.7318 58.0476C78.7733 55.9853 78.7317 56.0062 79.6274 57.7768C80.0649 58.6309 80.6065 59.4433 80.8148 59.5683Z" fill="#FF4D4D"/>
</svg>
