<svg width="100" height="100" viewBox="0 0 100 100" fill="none" xmlns="http://www.w3.org/2000/svg">
<path d="M83.3718 0.137329C82.2195 0.488892 81.3796 1.13342 78.6843 3.78967L75.8327 6.60217L41.8484 6.64124L7.88353 6.69983L6.73119 7.14905C3.72337 8.28186 1.45775 10.6256 0.442123 13.6334C0.0905609 14.6686 0.0710297 16.0944 0.0710297 49.9616V85.2155L0.53978 86.485C1.71165 89.7077 4.34837 92.1686 7.47337 92.9498L8.37181 93.1647V94.6686C8.37181 96.4655 8.95775 97.8522 10.0906 98.7897C11.4968 99.942 11.8288 99.9811 20.3054 99.9225C27.4538 99.8639 28.0593 99.8444 28.7624 99.4928C30.5593 98.5944 31.4577 97.11 31.5749 94.8248L31.6531 93.3209H48.3327H65.0124V94.5514C65.0124 96.8366 66.0085 98.5748 67.8445 99.4733C68.5671 99.8444 69.1335 99.8639 76.321 99.9225C82.8249 99.9616 84.1531 99.9225 84.9148 99.6686C87.0242 98.9655 88.2546 97.1686 88.2546 94.7467C88.2546 93.692 88.3132 93.3209 88.5085 93.3209C88.6452 93.3209 89.2312 93.1842 89.7976 93.0084C90.989 92.6569 92.1999 91.6608 92.8054 90.5084L93.2351 89.7077L93.2937 56.7975L93.3327 23.8873L96.2429 20.9576C97.8445 19.3561 99.3093 17.735 99.4851 17.3639C99.6804 16.9928 99.8562 16.2115 99.9148 15.6061C100.169 12.6959 96.9851 7.32483 93.0398 4.00452C89.6609 1.17249 85.5007 -0.507202 83.3718 0.137329ZM86.5359 3.8678C89.2702 4.88342 92.8445 7.94983 94.6999 10.8209C95.8132 12.5787 96.7507 14.9615 96.5749 15.6256C96.5163 15.8795 93.5867 18.9459 90.071 22.4615L83.6648 28.8483L82.8249 28.6334C79.6218 27.8131 76.0671 31.3678 76.8874 34.5709C77.1023 35.3912 77.0827 35.4303 76.3992 36.1334C75.0515 37.5201 75.2077 37.5983 68.7624 31.2506C63.5476 26.1334 63.0398 25.5865 63.0593 25.0006C63.0593 24.5319 63.2546 24.1608 63.8015 23.5944C64.5242 22.8131 64.5242 22.8131 65.364 23.0475C68.5671 23.8678 72.1218 20.3131 71.3015 17.11L71.0671 16.2701L77.5906 9.7467C84.9538 2.38342 84.114 2.94983 86.5359 3.8678ZM70.8718 11.5826L69.2117 13.2428H43.4304C18.7624 13.2428 17.6101 13.2623 16.8484 13.6139C15.8327 14.0826 15.2859 14.7858 14.8952 16.153C14.0163 19.1412 12.5124 20.6451 9.52415 21.524C8.15697 21.9147 7.45384 22.4615 6.98509 23.4772C6.63353 24.2389 6.614 25.3717 6.614 49.9616C6.614 74.5514 6.63353 75.6842 6.98509 76.4459C7.47337 77.5006 8.15697 78.0084 9.79759 78.4967C12.6296 79.3366 14.0359 80.8014 14.9148 83.8287C15.3054 85.2155 16.1452 86.153 17.2585 86.4655C18.3523 86.7584 74.9538 86.7584 76.0476 86.4655C77.2976 86.1139 77.9812 85.2545 78.5867 83.2819C79.0554 81.6803 79.2117 81.4264 80.3054 80.3326C81.4968 79.1608 82.0632 78.8483 84.0749 78.3014C85.1492 78.0084 85.8913 77.403 86.321 76.4459C86.6726 75.6842 86.6921 74.6295 86.6921 53.0866V30.528L88.196 29.024C89.0359 28.1842 89.7781 27.5006 89.8562 27.5006C89.9538 27.5006 89.9929 41.3483 89.9734 58.2623L89.9148 89.0045L89.4656 89.4537L89.0163 89.903H48.7429H8.46947L7.35619 89.3756C5.81322 88.653 4.62181 87.5006 3.95775 86.0358L3.39134 84.8248L3.33275 50.3522C3.29369 16.3092 3.29369 15.86 3.68431 14.5905C4.32884 12.442 6.26244 10.6647 8.50853 10.1373C8.91869 10.0397 23.3132 9.96155 40.8913 9.94202L72.532 9.92249L70.8718 11.5826ZM40.0124 33.7897V50.9967L38.3523 53.985C36.0281 58.1451 36.0476 58.653 38.6257 61.192L40.0124 62.5397V72.9498V83.36H29.0945H18.1765L17.9617 82.442C17.1413 79.2194 14.3679 76.3287 11.2234 75.4303L9.93431 75.0592V49.9616V24.8639L11.2234 24.4928C14.3484 23.5944 17.1413 20.6842 17.9617 17.4615L18.1765 16.5631H29.0945H40.0124V33.7897ZM67.9226 17.3248C68.3327 18.7311 67.5124 19.8248 66.1257 19.7076C63.821 19.5123 63.3523 19.5709 62.4734 20.1764C61.5163 20.8405 60.2859 22.403 59.9538 23.3795C59.6218 24.3756 59.6999 25.9381 60.1296 26.8756C60.3445 27.3444 61.0085 28.2428 61.6335 28.8873L62.7468 30.0592L54.9343 37.8717C50.657 42.1686 46.9851 45.7819 46.7898 45.8795C46.5945 45.9967 45.7546 46.3678 44.8952 46.7389L43.3327 47.403V31.9928V16.5631H55.5007H67.6882L67.9226 17.3248ZM82.6101 32.0319L83.3718 32.2467V53.653V75.0592L82.1023 75.4303C79.0359 76.3092 76.321 79.0241 75.4421 82.0709L75.071 83.36H59.2117H43.3327V80.8209V78.2819H45.2077C46.9851 78.2819 47.1023 78.3014 47.4734 78.7701C48.4109 79.9616 48.1374 79.942 59.3484 80.0006C70.3054 80.0787 71.1648 80.0201 72.1023 79.1412C73.3523 77.9889 73.3132 78.3405 73.3718 67.8326C73.4109 62.5592 73.3913 57.6178 73.3132 56.8561C73.157 55.1373 72.6882 54.3366 71.4577 53.7116C70.5984 53.2819 70.5202 53.2819 62.3367 53.2819C57.7859 53.2819 54.0749 53.2233 54.0749 53.1256C54.0749 53.0475 57.6296 49.4342 61.9851 45.0787L69.8757 37.1881L71.0476 38.3014C71.6921 38.9264 72.5906 39.5905 73.0593 39.8053C74.0163 40.235 75.4421 40.3131 76.5554 39.9616C77.6101 39.6491 79.446 38.1061 80.0124 37.0709C80.4031 36.3092 80.4617 36.0358 80.3445 35.1178C80.071 33.0475 80.2663 32.403 81.321 31.9733C81.8484 31.778 81.7702 31.7584 82.6101 32.0319ZM59.3679 43.028L51.1843 51.2311L50.2663 53.3795C49.7585 54.5514 49.1531 55.7233 48.9187 55.9381C48.7038 56.1725 47.0632 57.1686 45.2859 58.1451L42.0632 59.9225L41.0281 58.8873L39.9929 57.8522L41.7898 54.6491C42.7859 52.8717 43.7624 51.2311 43.9577 51.0162C44.1726 50.7819 45.3445 50.1764 46.5554 49.6491L48.7624 48.7311L56.946 40.5475L65.1101 32.3834L66.321 33.5944L67.5515 34.8248L59.3679 43.028ZM69.8952 66.6608V76.7194H59.9343H49.9734V68.067V59.3951L50.7546 58.7701C51.2038 58.4186 51.7702 57.7936 52.0632 57.3639L52.571 56.6022H61.2234H69.8952V66.6608ZM46.6531 63.1451V65.0006H44.9734H43.3132L43.3718 64.0045L43.4304 63.0084L44.8952 62.1491C45.696 61.6803 46.4187 61.3092 46.5163 61.3092C46.5945 61.2897 46.6531 62.1295 46.6531 63.1451ZM46.6531 71.6412V74.9616H44.9929H43.3327V71.6412V68.3209H44.9929H46.6531V71.6412ZM28.2937 94.4147C28.2937 95.3522 28.2156 95.567 27.7273 96.0748L27.1609 96.6412H20.0906C11.4773 96.6412 11.6921 96.6998 11.6921 94.3756V93.3209H19.9929H28.2937V94.4147ZM84.9343 94.4342C84.9148 96.6608 84.9929 96.6412 76.5359 96.6412H69.4656L68.8992 96.0748C68.4109 95.567 68.3327 95.3522 68.3327 94.4147V93.3209H76.6335H84.9343V94.4342Z" fill="#56647B"/>
<path d="M78.9382 13.8874C75.2077 17.6178 74.7781 18.1061 74.7781 18.692C74.7781 19.1413 74.9538 19.4928 75.3445 19.903C76.4382 20.9967 76.5749 20.9186 81.2624 16.2116C84.9734 12.5202 85.5202 11.8952 85.5202 11.3678C85.5202 11.0358 85.3445 10.528 85.1101 10.235C84.7976 9.82486 84.5437 9.7272 83.8992 9.7272C83.0984 9.7272 83.0007 9.80532 78.9382 13.8874Z" fill="#56647B"/>
<path d="M83.7038 18.6725C79.0163 23.3796 78.9382 23.4968 80.032 24.5905C80.6765 25.2155 81.1843 25.2936 81.9656 24.8835C82.2585 24.7272 84.2312 22.8522 86.3601 20.7233C90.1101 16.9343 90.2077 16.8171 90.2077 16.0358C90.2077 15.0593 89.5437 14.4147 88.5671 14.4147C88.0202 14.4147 87.4343 14.9225 83.7038 18.6725Z" fill="#56647B"/>
<path d="M22.7077 20.0789C21.6335 20.5085 21.3406 21.9343 22.1413 22.7156L22.6101 23.2039H27.4734C32.0242 23.2039 32.3562 23.1843 32.7273 22.8132C33.3132 22.2859 33.4499 21.7195 33.157 21.0359C32.7273 19.9812 32.2781 19.8835 27.4734 19.9031C25.071 19.9031 22.9226 19.9812 22.7077 20.0789Z" fill="#56647B"/>
<path d="M17.4734 26.7193C16.0671 26.9732 14.8366 27.813 14.0945 29.0435C13.3523 30.2935 13.1765 31.4458 13.2937 34.2193C13.3913 36.5826 13.821 37.6763 15.071 38.731C16.4968 39.9615 17.0827 40.0396 24.6218 39.9615C31.1062 39.9029 31.3406 39.8833 32.1218 39.4732C33.1765 38.9068 34.407 37.5005 34.6999 36.524C34.8366 36.0943 34.9343 34.5904 34.9343 33.1451C34.9343 30.8208 34.8757 30.4107 34.4656 29.5513C34.2312 29.0044 33.6843 28.2818 33.2741 27.9107C31.8288 26.6412 31.7898 26.6412 24.7781 26.6021C21.282 26.563 18.0007 26.6216 17.4734 26.7193ZM31.1257 30.5279C31.5945 30.9771 31.614 31.1138 31.614 33.2427C31.614 35.3326 31.5749 35.5279 31.1452 36.0357L30.6765 36.5826L24.4656 36.6412C17.7468 36.6998 17.3562 36.6607 16.8679 35.6841C16.5163 35.0396 16.4577 31.9146 16.7702 31.0943C17.1804 30.0396 17.1413 30.0591 24.1531 30.0396H30.657L31.1257 30.5279Z" fill="#56647B"/>
<path d="M16.282 43.7898C14.9929 44.3757 13.9382 45.5671 13.5671 46.8562C13.157 48.2234 13.157 51.7 13.5671 53.0671C13.9382 54.3562 14.9929 55.5476 16.282 56.1335C17.239 56.5828 17.3562 56.6023 24.0163 56.6023C31.3406 56.6023 31.7507 56.5437 33.1179 55.5085C33.4695 55.2546 33.9968 54.6101 34.2898 54.1023C34.8367 53.2039 34.8367 53.1257 34.8367 49.9617C34.8367 46.7976 34.8367 46.7195 34.2898 45.821C33.9968 45.3132 33.4499 44.6687 33.0788 44.3757C31.7507 43.3796 31.4382 43.3406 24.0945 43.3406C17.3367 43.321 17.239 43.321 16.282 43.7898ZM31.1257 47.1296C31.5945 47.5789 31.614 47.7156 31.614 49.9031C31.5945 51.407 31.5163 52.325 31.3601 52.5203C30.8132 53.2429 30.3835 53.282 24.0163 53.282H17.7663L17.2195 52.8132C16.6726 52.3445 16.6726 52.325 16.6726 49.9617C16.6726 47.5984 16.6726 47.5789 17.2195 47.1101L17.7663 46.6414H24.2117H30.657L31.1257 47.1296Z" fill="#56647B"/>
<path d="M16.7702 60.2156C15.5984 60.5867 14.3679 61.6609 13.8015 62.8132C13.3913 63.6531 13.3523 63.9851 13.3523 66.6609C13.3523 69.5515 13.3523 69.6101 13.9382 70.6453C14.2507 71.2117 14.7781 71.8953 15.1101 72.1492C16.4773 73.1843 16.6335 73.2039 24.0163 73.2039C28.7234 73.2039 31.1257 73.1257 31.6531 72.9695C32.7468 72.6375 34.0163 71.446 34.5242 70.2546C34.9148 69.3562 34.9538 69.0046 34.8952 66.407C34.8562 64.1218 34.7585 63.3992 34.4851 62.8328C34.0163 61.9148 33.0984 60.9773 32.1218 60.45C31.3406 60.0398 31.0867 60.0203 24.4851 59.9812C19.0163 59.9421 17.4734 60.0007 16.7702 60.2156ZM31.0476 63.8093C31.614 64.3757 31.614 64.4148 31.614 66.6609C31.614 68.8093 31.5945 68.946 31.1257 69.3953L30.657 69.8835H24.1335H17.6101L17.1413 69.3757C16.7117 68.9265 16.6726 68.6726 16.614 66.8562C16.5359 64.6492 16.7898 63.7703 17.6101 63.4382C17.8445 63.3406 20.8327 63.2625 24.2507 63.2625L30.4812 63.2429L31.0476 63.8093Z" fill="#56647B"/>
<path d="M22.1413 77.2076C21.5163 77.8131 21.5163 78.6724 22.1218 79.3951L22.5906 79.942L26.9656 80.0006C29.7781 80.0396 31.5749 80.0006 32.0437 79.8443C33.3327 79.4732 33.7234 78.0474 32.7859 77.1099C32.4148 76.7388 32.1218 76.7193 27.5124 76.7193H22.6101L22.1413 77.2076Z" fill="#56647B"/>
<path d="M47.7077 20.0787C46.6335 20.5084 46.3406 21.9342 47.1413 22.7154C48.1374 23.731 49.9734 23.0279 49.9734 21.6607C49.9734 20.5474 48.6843 19.6685 47.7077 20.0787Z" fill="#56647B"/>
<path d="M54.3288 20.0787C53.2351 20.5279 53.0007 22.2466 53.9382 22.9107C54.9929 23.6529 56.614 22.9107 56.614 21.6607C56.614 20.5474 55.3249 19.6685 54.3288 20.0787Z" fill="#56647B"/>
<path d="M47.1413 27.2077L46.6531 27.6764V33.2624V38.8678L47.239 39.4538C47.7468 39.9421 47.9421 40.0202 48.4695 39.9225C48.821 39.8639 49.2898 39.5905 49.5437 39.2975C49.9734 38.8092 49.9734 38.7311 49.9734 33.2428V27.6764L49.4851 27.2077C48.8406 26.5436 47.7859 26.5436 47.1413 27.2077Z" fill="#56647B"/>
<path d="M53.9382 27.0123C53.4109 27.3834 53.1765 28.4772 53.489 29.0631C53.7624 29.5905 54.7195 30.0006 55.364 29.8834C55.6179 29.8444 56.0085 29.5709 56.2234 29.2975C57.0632 28.2428 56.3992 26.7194 55.071 26.7194C54.6804 26.7194 54.1726 26.8561 53.9382 27.0123Z" fill="#56647B"/>
<path d="M77.2195 53.7702C76.7507 54.2195 76.7312 54.3562 76.7312 56.6023C76.7312 58.8484 76.7507 58.9851 77.2195 59.4343C77.8249 60.0593 78.6843 60.0593 79.407 59.4538C79.9538 58.9851 79.9538 58.9655 79.9538 56.6023C79.9538 54.239 79.9538 54.2195 79.407 53.7507C78.6843 53.1452 77.8249 53.1452 77.2195 53.7702Z" fill="#56647B"/>
<path d="M77.6101 63.4772C76.8093 63.9069 76.7312 64.2194 76.7312 66.6608C76.7312 68.8874 76.7507 69.0632 77.1804 69.4538C77.8249 70.0593 78.8796 70.0202 79.4851 69.3757C79.8952 68.9265 79.9538 68.6726 80.0124 66.9343C80.0906 64.7077 79.8952 63.946 79.0554 63.5358C78.4109 63.1843 78.1374 63.1843 77.6101 63.4772Z" fill="#56647B"/>
<path d="M53.8601 60.4888C53.2546 61.0943 53.157 61.6411 53.5281 62.3247C54.3484 63.8677 56.614 63.3404 56.614 61.6021C56.614 61.0943 56.4773 60.8208 56.0085 60.4302C55.2273 59.7661 54.5632 59.7857 53.8601 60.4888Z" fill="#56647B"/>
<path d="M54.3288 70.0789C53.6452 70.3718 53.2351 71.1531 53.3718 71.9343C53.6062 73.1843 53.7038 73.2039 60.032 73.2039H65.7351L66.1452 72.7546C66.7507 72.1101 66.7117 71.0554 66.0671 70.45L65.5593 69.9812L60.1687 69.9421C57.1999 69.9226 54.5632 69.9812 54.3288 70.0789Z" fill="#56647B"/>
</svg>
