<svg width="100" height="101" viewBox="0 0 100 101" fill="none" xmlns="http://www.w3.org/2000/svg">
<path d="M65.0285 1.01741C63.7569 1.46735 62.368 2.93451 61.9963 4.22562C61.5464 5.75148 61.5268 20.7166 61.9963 22.0468C62.5832 23.8074 64.6959 25.5289 66.2413 25.5289C66.5543 25.5289 66.9651 25.6267 67.1803 25.7245C67.5324 25.9202 67.552 26.1745 67.552 29.6565C67.552 33.8233 67.6889 34.4689 68.804 35.134C69.5082 35.5643 70.7602 35.6035 71.4644 35.2318C71.7383 35.0753 73.6163 32.8452 75.6703 30.2825L79.3872 25.6267L87.8967 25.5289L96.4063 25.4311L97.3257 24.8834C98.2647 24.3356 98.9103 23.6314 99.5558 22.399C99.908 21.773 99.9275 21.0883 99.9862 13.8307C100.025 8.49019 99.9862 5.61454 99.8297 4.89074C99.5167 3.40401 98.5973 2.13246 97.2866 1.3891L96.2107 0.782667L81.0499 0.743543C67.6694 0.72398 65.7914 0.743543 65.0285 1.01741ZM95.7021 3.8735C95.9564 3.99088 96.3672 4.36256 96.5824 4.65599C96.9932 5.20374 96.9932 5.39936 96.9932 13.0873C96.9932 21.4991 96.9736 21.7143 96.0151 22.262C95.7412 22.4381 93.1199 22.5163 87.2121 22.5946C79.5437 22.6924 78.7416 22.7315 78.0765 23.0641C77.5483 23.3184 76.4333 24.5704 73.9684 27.7003L70.5841 31.9845L70.4863 28.6002C70.3885 24.9225 70.2516 24.4725 69.117 23.514C68.491 22.9858 67.4151 22.5946 66.5739 22.5946C65.9283 22.5946 65.2828 22.1251 64.9111 21.4208C64.4807 20.5797 64.4807 5.6341 64.9111 4.79293C65.5371 3.58007 64.8915 3.63876 80.7565 3.63876C91.8679 3.61919 95.3499 3.67788 95.7021 3.8735Z" fill="#FF4D4D"/>
<path d="M68.5296 8.70611C68.0405 9.19517 68.0209 10.095 68.51 10.6819L68.8817 11.1514L80.2082 11.2101C86.429 11.2492 91.8086 11.2101 92.1607 11.1514C93.4323 10.9166 93.98 9.60598 93.178 8.74524L92.7672 8.31487H80.8538C69.1751 8.31487 68.9208 8.31487 68.5296 8.70611Z" fill="#FF4D4D"/>
<path d="M68.6474 15.9638C68.0019 16.4724 67.9432 17.5092 68.53 18.0961C68.9017 18.4677 69.1756 18.4873 75.1812 18.4873C81.1868 18.4873 81.4607 18.4677 81.8324 18.0961C82.4192 17.5092 82.3605 16.4724 81.715 15.9638C81.2064 15.5725 80.9716 15.553 75.1812 15.553C69.3908 15.553 69.156 15.5725 68.6474 15.9638Z" fill="#FF4D4D"/>
<path d="M26.9013 15.9436C25.3168 16.374 23.2041 17.4108 22.1086 18.3107C21.2283 19.0345 21.1109 19.9343 21.8347 20.5995C22.4803 21.2059 23.0476 21.1276 24.3974 20.2669C25.0625 19.8365 26.0797 19.2888 26.6666 19.0345C27.7229 18.5845 27.8599 18.5845 36.0956 18.5259C43.2749 18.4672 44.6052 18.5063 45.6811 18.7802C49.2218 19.6996 52.0975 22.5361 53.193 26.2138C53.4864 27.1724 53.5451 28.1309 53.5451 31.3L53.5647 35.2125L52.6452 35.2711L51.7454 35.3298L51.6671 31.8282C51.6084 28.3852 51.6084 28.3265 51.0216 27.1919C49.8087 24.8053 48.0481 24.0815 43.9009 24.1989C41.0253 24.2772 40.9079 24.3163 38.8147 25.7052C37.9149 26.3116 37.5823 26.4094 36.6433 26.4094C35.6652 26.4094 35.3718 26.3116 34.4719 25.7052C32.3396 24.2576 32.3592 24.2576 28.9162 24.2576C25.395 24.2576 24.6125 24.4728 23.3019 25.7639C22.0108 27.055 21.8934 27.5636 21.776 31.5934L21.6782 35.2125L20.7783 35.2711L19.8785 35.3298L19.7611 32.4346C19.6437 29.246 19.8198 26.8594 20.2893 25.5487C20.7392 24.2967 20.7001 23.6707 20.0937 23.2012C18.9591 22.3014 18.157 22.81 17.4919 24.8053C16.905 26.5855 16.7094 28.8156 16.8268 32.2977L16.9441 35.2516L15.8487 35.9558C15.1249 36.4253 14.5771 36.9731 14.2054 37.5991C13.6772 38.4989 13.6577 38.675 13.599 41.2963C13.5207 44.4263 13.6772 45.287 14.5967 46.4999C15.5161 47.7127 16.6311 48.2018 18.7439 48.3387L20.524 48.4757L20.9544 50.2558C21.1696 51.2339 21.7369 52.7794 22.2064 53.6988C22.8911 55.0877 23.3801 55.7137 25.1407 57.4743L27.2534 59.587V62.0127C27.2534 64.3798 27.2339 64.458 26.8231 64.5558C26.5688 64.6145 22.8128 65.397 18.4504 66.2969C14.0881 67.1967 10.0387 68.1357 9.43224 68.3509C5.59804 69.7985 2.40939 73.3784 1.3139 77.4278C1.02047 78.4842 0.0619212 90.691 0.00323441 93.997C-0.0163278 95.6207 0.0423589 95.9924 0.472728 96.9314C1.17697 98.4376 1.97902 99.2984 3.42663 100.081L4.65905 100.746L50.826 100.805C76.2178 100.824 97.2863 100.805 97.6384 100.746C99.1251 100.472 100.162 98.7702 99.8881 97.0096C99.6142 95.1903 98.0492 93.2536 96.4647 92.7842L95.7409 92.569L95.6822 79.7361C95.6235 67.0402 95.6235 66.9033 95.2127 66.1208C94.665 65.1231 93.8825 64.3406 92.8848 63.7929L92.1023 63.3821H72.1488C61.1744 63.3821 51.8628 63.4603 51.4715 63.5386C51.0607 63.6168 50.3369 64.0081 49.8283 64.3798L48.9284 65.084L47.4808 64.7515L46.0332 64.4385V61.9149V59.3914L47.2069 58.472C49.7109 56.4962 51.8041 53.1315 52.4496 50.0406L52.7626 48.4365L53.5842 48.2996C54.0146 48.2409 54.6015 48.2214 54.8558 48.2605C55.2666 48.3192 55.3253 48.3974 55.2666 49.1017C55.0905 51.2926 53.8777 54.3835 52.0779 57.1222C51.4519 58.1003 51.0607 58.9023 51.0607 59.2545C51.0607 60.213 52.1562 60.8194 53.1734 60.4282C53.3495 60.3499 53.9168 59.6653 54.4254 58.9023C56.5773 55.7333 57.8488 52.4077 58.2009 49.0625C58.3183 47.9084 58.5335 46.8129 58.6704 46.6564C58.8074 46.4803 59.1008 45.9521 59.316 45.4826C59.6681 44.7197 59.7268 44.1915 59.7268 41.7658C59.7268 39.2032 59.6877 38.8315 59.2573 37.9512C58.8074 36.9535 57.8684 35.9949 57.0467 35.682C56.5968 35.5255 56.5968 35.4863 56.5968 32.0434C56.5968 30.1263 56.499 27.9549 56.4012 27.2115C55.6578 22.1644 52.4105 18.1542 47.5591 16.2762L45.9354 15.6502L37.1324 15.6111C28.9749 15.572 28.2316 15.5915 26.9013 15.9436ZM32.7113 28.0527C35.3913 29.9307 37.8366 29.9307 40.5753 28.0527L41.8273 27.1919H44.5073H47.1874L47.7742 27.7592C48.1068 28.0918 48.4785 28.6591 48.5763 29.0308C48.6937 29.4416 48.7719 33.178 48.7719 38.049V46.3629L49.261 47.0867C49.8674 47.9866 49.8674 48.6517 49.261 50.4906C47.9307 54.4421 44.6834 57.4743 40.3602 58.8045C38.2279 59.4696 34.824 59.4501 32.6917 58.7458C29.1119 57.5721 26.2166 55.1464 24.7495 52.1142C23.7909 50.1776 23.3214 48.1822 23.6931 47.6736C24.6517 46.3238 24.6125 46.7346 24.7104 37.3447C24.8082 27.7201 24.7495 28.2092 25.9819 27.4462C26.4905 27.1332 26.9013 27.0941 29.0336 27.1332L31.4985 27.1919L32.7113 28.0527ZM21.6391 38.4989C21.6978 38.6359 21.6978 40.24 21.6586 42.0788L21.5804 45.3848L20.1132 45.4435C19.3112 45.4826 18.2939 45.4044 17.8636 45.287C16.7094 44.974 16.4942 44.4067 16.4942 41.7658C16.4942 38.4989 16.6898 38.2642 19.5459 38.2446C21.0131 38.2446 21.5608 38.3033 21.6391 38.4989ZM56.3034 38.7337C56.7729 39.1836 56.7924 39.3205 56.7924 41.7071C56.7924 44.5632 56.6555 44.9545 55.4622 45.287C55.071 45.3848 54.0537 45.4826 53.2321 45.4826H51.7063V41.8636V38.2446H53.7603C55.697 38.2446 55.8535 38.2837 56.3034 38.7337ZM32.5353 61.7584C33.7285 62.091 34.5306 62.1888 36.7411 62.1692C39.1473 62.1692 39.695 62.1105 41.2013 61.6606C42.1403 61.3672 42.9619 61.1324 43.0206 61.1324C43.0989 61.1324 43.1184 62.4822 43.0597 64.1059C42.9815 66.8251 42.9424 67.1967 42.4729 68.1944C40.5753 72.3025 35.3131 73.261 32.1636 70.0919C30.6377 68.5465 30.1878 66.962 30.1878 63.206C30.1878 61.0933 30.1878 61.0933 30.6377 61.2107C30.8725 61.2889 31.7332 61.5237 32.5353 61.7584ZM92.1414 66.8642L92.6892 67.3924L92.7479 79.9122L92.8065 92.432H76.8633C68.0994 92.432 60.7831 92.4907 60.6071 92.5494C59.7268 92.9015 59.6681 94.7208 60.5093 95.1707C60.744 95.2881 67.2191 95.3664 78.0566 95.3664C94.9388 95.3664 95.2518 95.3664 95.8778 95.7576C96.4451 96.1097 97.0907 97.1465 97.0907 97.7138C97.0907 97.8508 89.1093 97.9095 71.9532 97.9095H46.8157V97.5182C46.8157 96.814 47.3634 96.0119 48.0677 95.6794C48.6154 95.4251 49.3979 95.3664 52.3127 95.3664C55.7165 95.3664 55.9121 95.3468 56.3425 94.936C56.9881 94.3491 56.9489 93.371 56.2838 92.8428C55.8143 92.4712 55.5013 92.432 53.3495 92.432H50.9238V80.1078C50.9238 70.8157 50.9825 67.6662 51.1585 67.275C51.6476 66.1991 50.9825 66.2186 72.0901 66.2773L91.6132 66.3164L92.1414 66.8642ZM27.8012 68.4683C28.5641 70.6984 30.0704 72.5568 32.0462 73.6718C32.6526 74.0044 33.1221 74.3174 33.083 74.337C33.0439 74.3761 32.3201 74.9434 31.4593 75.5889C29.7183 76.9387 28.9945 77.0952 28.2902 76.3323C27.6056 75.6085 23.1258 68.527 23.2432 68.39C23.3801 68.2531 27.0578 67.4119 27.3121 67.4706C27.4099 67.4902 27.6251 67.9401 27.8012 68.4683ZM47.2656 67.7054L47.9894 67.8227V69.8963V71.9504L46.6005 74.1218C45.8376 75.3151 45.0747 76.4106 44.8986 76.5279C44.253 77.0365 43.4705 76.8214 41.9447 75.6867C41.1231 75.0803 40.3797 74.513 40.2819 74.4152C40.1841 74.337 40.5362 74.0435 41.0644 73.7892C43.3532 72.6155 44.8986 70.6006 45.7593 67.6271C45.7985 67.4902 45.9941 67.4119 46.1701 67.4706C46.3658 67.5293 46.8548 67.6271 47.2656 67.7054ZM23.0084 73.7501C26.5101 79.1688 26.8818 79.5209 29.014 79.6774C30.5203 79.7948 31.342 79.4036 34.2372 77.1735C35.8217 75.9802 36.702 75.4324 36.8781 75.5303C37.015 75.6085 38.1887 76.4888 39.4994 77.4669C40.7905 78.4646 42.1403 79.3645 42.512 79.4818C44.1748 80.0687 46.0723 79.5601 47.3634 78.2103L47.9894 77.5452V85.0375V92.5298L47.1483 92.882C45.329 93.6253 43.8814 95.5229 43.8814 97.1661V97.9095H29.7965H15.7313L15.6726 92.1582C15.6139 86.8177 15.5943 86.3873 15.2422 85.9961C14.7923 85.4874 13.6577 85.4483 13.1295 85.9178C12.7969 86.2112 12.7774 86.6612 12.7774 92.0799V97.9095H9.21705C6.00884 97.9095 5.57848 97.8703 4.81555 97.4987C4.36562 97.2835 3.81787 96.8531 3.60269 96.5792C2.83976 95.4837 2.8202 94.936 3.28969 87.7958C3.544 84.0594 3.81787 80.4599 3.87656 79.8144C4.15043 77.1344 5.73497 74.2 7.74988 72.6937C9.58874 71.3048 10.6255 70.9331 15.3009 69.9354C17.7266 69.4073 19.7611 68.9769 19.8198 68.9769C19.8785 68.9769 21.3065 71.1092 23.0084 73.7501Z" fill="#FF4D4D"/>
<path d="M70.2711 73.9064C69.782 74.0433 68.98 74.4541 68.5105 74.7867C66.2608 76.4495 65.5566 79.2665 66.7499 81.7704C67.3759 83.1202 68.1584 83.8636 69.6842 84.5678C70.5645 84.9786 70.9362 85.0373 72.1295 84.9591C74.3596 84.8026 76.0028 83.7071 76.9809 81.6922C77.5874 80.4402 77.5874 78.4253 76.9809 77.0559C75.8659 74.552 72.8924 73.163 70.2711 73.9064ZM72.9511 76.8994C75.4551 78.0927 74.8291 81.7509 72.0904 82.0247C70.9166 82.1225 70.0363 81.7313 69.5081 80.8314C68.6865 79.5012 69.2343 77.6623 70.6819 76.9385C71.5426 76.5082 72.0904 76.4886 72.9511 76.8994Z" fill="#FF4D4D"/>
</svg>
