<svg version="1.0" xmlns="http://www.w3.org/2000/svg"
 width="100px" height="100px" viewBox="0 0 512.000000 512.000000"
 preserveAspectRatio="xMidYMid meet">

<g transform="translate(0.000000,512.000000) scale(0.100000,-0.100000)"
fill="#56647B" stroke="none">
<path d="M51 5106 c-53 -29 -50 73 -51 -1853 l0 -1793 2560 0 2560 0 0 1790
c0 1948 3 1832 -55 1858 -40 19 -4980 17 -5014 -2z m1443 -200 c93 -46 148
-135 148 -241 1 -117 -73 -223 -179 -259 -70 -24 -213 -22 -263 4 -48 25 -89
77 -97 124 -7 43 -28 47 -67 11 l-26 -24 0 -259 0 -260 30 -12 c81 -33 150
-153 150 -259 1 -133 66 -277 173 -377 218 -207 547 -204 757 6 103 103 152
214 165 375 10 124 52 199 142 251 l44 26 -3 255 -3 255 -28 24 c-37 31 -55
30 -63 -3 -13 -57 -53 -111 -97 -132 -35 -17 -62 -21 -139 -21 -86 0 -101 3
-157 31 -66 33 -98 68 -132 144 -27 60 -23 159 9 221 25 49 91 110 141 131 49
21 185 28 241 13 60 -16 115 -73 131 -133 11 -44 14 -47 43 -47 46 0 131 -46
170 -92 61 -71 66 -101 66 -389 l0 -257 44 -26 c53 -31 92 -76 119 -135 17
-39 19 -60 14 -170 -17 -390 -248 -739 -608 -916 -48 -23 -114 -50 -148 -60
l-61 -19 0 -86 c0 -52 -6 -105 -16 -132 -19 -56 -69 -117 -119 -143 -36 -19
-37 -21 -31 -65 3 -25 24 -81 45 -125 71 -144 208 -253 362 -290 94 -22 808
-22 894 0 191 49 338 189 398 380 21 66 22 88 22 390 l0 319 -40 7 c-157 28
-329 151 -418 301 -142 239 -105 563 86 761 209 216 504 263 772 124 85 -44
211 -173 257 -262 101 -195 97 -421 -9 -615 -75 -136 -237 -260 -393 -301
l-65 -16 -6 -339 c-6 -372 -9 -395 -73 -529 -94 -197 -268 -340 -481 -395 -72
-18 -110 -20 -500 -20 -481 0 -505 3 -658 82 -122 63 -247 191 -310 316 -27
54 -53 125 -63 173 -17 75 -20 82 -53 99 -49 25 -106 86 -127 135 -10 24 -19
79 -22 136 l-5 96 -56 18 c-383 119 -675 458 -745 864 -37 219 -2 344 116 410
l47 26 3 270 c3 250 5 273 24 315 39 83 117 143 206 158 37 6 43 12 48 37 24
112 97 157 247 151 75 -3 102 -8 147 -30z"/>
<path d="M1280 4660 l0 -90 61 0 c54 0 64 3 90 29 38 38 40 91 4 126 -21 22
-33 25 -90 25 l-65 0 0 -90z"/>
<path d="M2036 4719 c-29 -35 -32 -58 -12 -98 19 -35 55 -51 116 -51 l50 0 0
90 0 90 -64 0 c-59 0 -66 -2 -90 -31z"/>
<path d="M3508 3996 c-319 -113 -410 -512 -172 -752 143 -146 378 -176 553
-71 72 43 148 128 185 207 29 61 31 72 31 185 0 114 -2 123 -32 188 -36 76
-116 166 -181 204 -113 66 -263 82 -384 39z m269 -184 c51 -27 98 -73 126
-126 17 -32 22 -58 22 -121 0 -96 -21 -142 -91 -204 -151 -133 -383 -62 -440
136 -38 132 44 286 176 328 60 20 154 13 207 -13z"/>
<path d="M3630 3653 c-62 -23 -81 -103 -35 -148 23 -24 39 -29 80 -26 26 3 75
56 75 82 0 62 -65 112 -120 92z"/>
<path d="M873 3830 c-40 -16 -56 -64 -48 -144 23 -245 120 -446 295 -608 124
-116 228 -168 470 -236 45 -13 60 -62 60 -200 0 -120 1 -124 26 -147 35 -33
84 -33 121 -1 28 24 28 26 33 165 6 171 6 171 138 206 381 102 654 432 679
822 l6 92 -31 30 c-40 40 -83 42 -121 3 -24 -24 -29 -38 -34 -108 -23 -267
-165 -484 -400 -606 -93 -49 -173 -70 -297 -75 -141 -7 -239 14 -370 79 -117
57 -247 186 -308 305 -48 93 -82 212 -82 288 0 70 -16 113 -51 130 -31 17 -54
18 -86 5z"/>
<path d="M0 1132 c0 -165 6 -183 66 -208 50 -21 4938 -21 4988 0 60 25 66 43
66 208 l0 148 -2560 0 -2560 0 0 -148z"/>
<path d="M1797 555 c-48 -96 -87 -177 -87 -180 0 -3 383 -5 850 -5 468 0 850
2 850 5 0 3 -39 84 -87 180 l-88 175 -675 0 -675 0 -88 -175z"/>
<path d="M1125 155 c-38 -37 -35 -95 6 -129 l31 -26 1400 0 1400 0 29 29 c38
38 40 91 4 126 l-24 25 -1411 0 -1411 0 -24 -25z"/>
</g>
</svg>
