<svg width="100" height="98" viewBox="0 0 100 98" fill="none" xmlns="http://www.w3.org/2000/svg">
<path d="M46.1593 1.28267C43.8411 1.89631 42.0456 2.96449 40.2274 4.78267C37.4093 7.60086 36.2729 10.3054 36.2729 14.2145C36.2729 16.0781 36.3865 16.8054 36.9093 18.3054C39.7729 26.7372 49.5911 30.1236 56.9093 25.2145C58.9093 23.8963 60.1593 22.51 61.2275 20.4645C62.432 18.169 62.8184 16.5781 62.7956 13.9872C62.7729 10.2145 61.5684 7.44177 58.7729 4.66904C57.0229 2.94176 55.1593 1.87358 52.8411 1.25994C51.1593 0.828123 47.7956 0.828123 46.1593 1.28267ZM53.4093 3.85085C56.2729 4.98722 58.7275 7.41904 59.7956 10.169C60.5002 12.01 60.6593 15.2145 60.1138 17.1918C59.0456 21.1236 55.3865 24.3281 51.182 25.0327C46.0229 25.8963 40.6365 22.5327 39.0683 17.4872C38.432 15.4418 38.4774 12.51 39.182 10.5554C40.432 7.12358 43.0456 4.62358 46.4547 3.60085C48.3411 3.0554 51.6593 3.16903 53.4093 3.85085Z" fill="#FF4D4D"/>
<path d="M47.5909 5.55654C46.75 5.92018 46.0227 6.80654 45.6818 7.87472C45.1591 9.44291 45.9546 11.2611 47.4773 12.0565C49.0455 12.852 50.6364 12.5338 51.9091 11.1702C52.4546 10.602 52.5909 10.2156 52.6818 9.102C52.7727 7.92018 52.7046 7.602 52.2046 6.85199C51.2273 5.39745 49.2727 4.82927 47.5909 5.55654ZM49.9546 7.87472C50.6818 8.37472 50.6364 9.44291 49.8637 9.94291C49.3182 10.2838 49.2046 10.2838 48.6591 9.98836C47.5909 9.37472 47.8864 7.51109 49.0455 7.51109C49.2727 7.51109 49.6818 7.67018 49.9546 7.87472Z" fill="#FF4D4D"/>
<path d="M46.8862 14.2835C45.1362 14.9199 43.9543 15.7835 43.0907 17.1244C42.0225 18.7381 41.8862 19.3971 42.4771 19.9881C42.9316 20.4426 43.1816 20.4653 49.1816 20.4653C54.5453 20.4653 55.4771 20.4199 55.7725 20.1017C56.9316 18.9653 54.7953 15.6926 52.1134 14.5108C50.6362 13.8744 48.3407 13.7608 46.8862 14.2835ZM51.7953 17.0108C53.5907 18.1017 53.3862 18.1926 49.2271 18.1926C47.1589 18.1926 45.4543 18.1017 45.4543 18.0108C45.4543 17.7608 46.0907 17.1926 46.818 16.829C48.3862 16.0108 50.2498 16.079 51.7953 17.0108Z" fill="#FF4D4D"/>
<path d="M13.3182 11.8743C13.0454 12.2607 12.9545 12.988 12.9545 14.9425C12.9545 17.2153 13 17.5562 13.4091 17.9653C13.9545 18.5107 14.2954 18.5334 14.9091 18.1016C15.2727 17.8289 15.3636 17.4425 15.4091 15.7152L15.5 13.6698L17.5682 13.6016C19.6136 13.5334 19.6591 13.5107 19.8636 12.9198C20.0454 12.4198 20 12.1925 19.6591 11.8289C19.2954 11.4198 18.9773 11.3743 16.4545 11.3743C13.8182 11.3743 13.6363 11.3971 13.3182 11.8743Z" fill="#FF4D4D"/>
<path d="M23.7726 11.7379C23.3408 12.147 23.2953 12.9879 23.6817 13.3742C23.8635 13.5561 24.8863 13.647 26.8181 13.647C29.909 13.647 30.2272 13.5333 30.2272 12.4652C30.2272 11.5561 29.659 11.3742 26.7272 11.3742C24.659 11.3742 24.0453 11.4424 23.7726 11.7379Z" fill="#FF4D4D"/>
<path d="M69.7274 11.6242C69.2502 11.897 69.182 12.9652 69.5911 13.3742C69.7729 13.5561 70.7956 13.647 72.7274 13.647C74.6593 13.647 75.682 13.5561 75.8638 13.3742C76.2956 12.9424 76.2047 11.8742 75.7047 11.6015C75.1365 11.3061 70.2502 11.3061 69.7274 11.6242Z" fill="#FF4D4D"/>
<path d="M79.9093 11.8737C79.432 12.5328 79.4547 12.8055 79.9547 13.2601C80.2729 13.5555 80.8411 13.6464 82.3411 13.6464H84.3184V15.6464C84.3184 17.3964 84.3865 17.7146 84.7956 18.101C85.2274 18.4874 85.3184 18.4874 85.8638 18.1692C86.4774 17.8283 86.4774 17.8055 86.5456 15.0328C86.6365 11.2828 86.7274 11.3737 83.0456 11.3737C80.4093 11.3737 80.2274 11.3964 79.9093 11.8737Z" fill="#FF4D4D"/>
<path d="M13.4091 22.0557C13 22.4648 12.9545 22.8057 12.9545 25.0784C12.9545 27.9875 13.2273 28.7148 14.2727 28.6012C15.25 28.4875 15.4773 27.7375 15.4091 24.8284C15.3409 22.5784 15.2727 22.1921 14.8863 21.9193C14.2954 21.4875 13.9545 21.5103 13.4091 22.0557Z" fill="#FF4D4D"/>
<path d="M84.7954 21.9872C84.3181 22.3735 84.2954 22.5554 84.3636 25.3508L84.4317 28.3054L85.0454 28.5099C85.5454 28.6917 85.7726 28.6463 86.1363 28.3054C86.5454 27.9417 86.5908 27.6235 86.5908 25.1008C86.5908 22.4645 86.5681 22.2826 86.0908 21.9645C85.4545 21.5099 85.3863 21.5099 84.7954 21.9872Z" fill="#FF4D4D"/>
<path d="M45.7273 35.3059C45.2955 35.7604 45.2273 36.1013 45.2273 37.6468C45.2273 38.624 45.0682 40.124 44.9092 40.9422C44.1364 44.5331 42.3864 46.1468 39.2728 46.1468C37.6137 46.1468 36.8182 46.5559 36.8182 47.3968C36.8182 48.3513 37.7273 48.7377 39.5001 48.5559C41.591 48.3741 42.5001 48.0786 43.7955 47.215C45.9319 45.7831 47.2046 42.965 47.4319 39.124L47.5682 37.0104L48.3864 37.1468C49.2955 37.2831 50.091 37.8059 50.7728 38.7377C51.1819 39.2604 51.2728 39.8059 51.3637 42.0331C51.4773 44.8968 51.7046 45.5331 52.8864 46.3059C53.3864 46.6468 54.1364 46.7377 57.1592 46.7831C59.2046 46.8286 60.9092 46.965 61.091 47.1013C61.4774 47.4195 61.4319 48.0786 61.0001 48.5104C60.7046 48.8059 60.0455 48.8741 57.4092 48.8741C54.0001 48.8741 53.6364 48.965 53.6364 49.9195C53.6364 51.0331 54.0683 51.1468 58.0455 51.1468C61.9546 51.1468 62.2728 51.2377 62.2728 52.215C62.2728 53.0331 61.4774 53.1922 57.6364 53.1922C54.0001 53.1922 53.6364 53.2831 53.6364 54.215C53.6364 55.2831 54.2273 55.465 57.6364 55.465C61.0001 55.465 61.3637 55.5786 61.3637 56.5104C61.3637 57.6013 60.9092 57.7377 57.4092 57.7377C54.0228 57.7377 53.6364 57.8513 53.6364 58.7604C53.6364 59.7832 54.2728 60.0104 57.0683 60.0104C59.8183 60.0104 60.2274 60.1468 60.2274 61.0332C60.2274 61.9877 59.9092 62.0559 55.1364 62.0559C49.9092 62.0559 48.8183 61.8741 45.7273 60.465L43.6819 59.5559H40.5228C37.1137 59.5559 36.8182 59.6468 36.8182 60.7377C36.8182 61.6468 37.3864 61.8286 40.4092 61.8286C43.0228 61.8286 43.1819 61.8513 44.8637 62.6468C48.0228 64.1013 49.4319 64.3286 55.0683 64.3286C60.6592 64.3286 61.2046 64.215 62.0683 62.8286C62.4319 62.215 62.5228 61.7604 62.4546 60.7377C62.4092 59.6468 62.4774 59.3059 62.9092 58.7832C63.6364 57.8513 63.9092 56.6468 63.6137 55.6241C63.4092 54.8513 63.4319 54.6922 63.9319 54.1013C64.7501 53.1468 64.8864 52.0331 64.3637 50.8286C64.1137 50.2831 63.8183 49.7831 63.6819 49.6922C63.5683 49.6241 63.5001 48.965 63.5683 48.1468C63.6819 46.374 63.1819 45.4195 61.7501 44.7831C60.9546 44.3968 60.2501 44.3286 57.3637 44.3286C54.4319 44.3286 53.8864 44.2831 53.7728 43.965C53.7046 43.7604 53.6364 42.715 53.6364 41.6468C53.6364 39.2377 53.3864 38.2604 52.4319 37.0104C51.341 35.5786 49.6592 34.7831 47.7501 34.7831C46.4319 34.7831 46.1364 34.8513 45.7273 35.3059Z" fill="#FF4D4D"/>
<path d="M11.5909 35.9192C7.7045 36.4192 3.84086 38.9647 1.84086 42.3738C1.40904 43.1011 0.818129 44.5102 0.522674 45.5102C-0.818237 50.192 0.454492 55.0329 3.9545 58.5329C8.09086 62.6693 13.9545 63.6238 19.3181 61.0102C21.5454 59.9193 24.1136 57.3738 25.1591 55.2147C28.1591 48.9874 26.3182 41.8283 20.7272 38.1011C18.0909 36.3511 14.6363 35.5101 11.5909 35.9192ZM15.8863 38.442C19.6363 39.3056 22.9545 42.6011 23.9772 46.4874C25.5682 52.6693 21.2727 59.0556 14.8636 60.0102C6.31813 61.3056 -0.318236 52.2602 3.38631 44.3965C4.65904 41.7374 7.54541 39.3056 10.4318 38.5101C11.7045 38.1692 14.5454 38.1238 15.8863 38.442Z" fill="#FF4D4D"/>
<path d="M11.591 40.4192C9.09104 41.601 8.54558 44.9646 10.5683 46.5555C12.182 47.8283 14.2274 47.6919 15.6138 46.2374C16.9547 44.8055 16.8865 42.8283 15.4774 41.3055C14.682 40.4646 14.5001 40.3737 13.2729 40.3055C12.5456 40.2828 11.7729 40.3283 11.591 40.4192ZM13.8865 42.9874C14.4774 43.5783 14.3638 44.2828 13.591 44.851L12.9547 45.3283L12.341 44.851C11.5683 44.2828 11.4547 43.7828 11.9092 43.0783C12.3638 42.3737 13.2274 42.3283 13.8865 42.9874Z" fill="#FF4D4D"/>
<path d="M10.4999 49.2833C8.40894 50.0333 6.31803 52.1469 5.99985 53.806C5.86349 54.5105 5.93167 54.6924 6.36349 55.056C6.81803 55.4196 7.40894 55.4651 12.9317 55.4651C19.4771 55.4651 19.9999 55.3742 19.9999 54.2605C19.9999 53.5105 18.7953 51.556 17.818 50.6924C15.909 49.0333 12.8862 48.4424 10.4999 49.2833ZM15.1362 51.6924C16.068 52.1924 16.6817 52.7151 16.5453 52.8514C16.4771 52.9196 14.7499 52.9424 12.7271 52.9196L9.02258 52.8514L9.93167 52.2151C10.4317 51.8742 11.1589 51.4878 11.4999 51.3742C12.3862 51.0787 14.3408 51.2605 15.1362 51.6924Z" fill="#FF4D4D"/>
<path d="M85.0002 35.9193C79.7275 36.6011 75.0911 40.692 73.7729 45.8284C73.3184 47.6239 73.3184 50.5784 73.7729 52.3739C74.3866 54.783 75.4093 56.5557 77.2729 58.4421C82.5457 63.783 90.7502 63.8284 96.0457 58.533C99.5457 55.033 100.818 50.1921 99.4775 45.5102C98.7957 43.1693 97.7502 41.4193 96.0002 39.6693C93.1593 36.8511 88.932 35.3966 85.0002 35.9193ZM89.4548 38.5102C94.7957 39.942 98.3866 45.3284 97.5684 50.7148C96.6366 56.6921 90.9775 60.9193 85.0911 60.0102C78.7047 59.033 74.432 52.6466 76.0229 46.4875C77.0229 42.6693 80.0684 39.5784 83.8638 38.5102C85.2275 38.1239 88.0229 38.1239 89.4548 38.5102Z" fill="#FF4D4D"/>
<path d="M84.5911 40.6015C83.4774 41.1696 82.8865 42.1697 82.7729 43.6242C82.682 45.1242 83.182 46.1015 84.3638 46.8287C85.5002 47.5106 86.4774 47.6242 87.6138 47.1697C90.0911 46.2378 90.7275 43.2833 88.8865 41.306C88.0911 40.4651 87.9093 40.3742 86.682 40.306C85.7502 40.2378 85.1138 40.3287 84.5911 40.6015ZM86.932 42.6469C87.4547 42.8515 87.7729 43.806 87.5002 44.3287C86.8184 45.6015 85.0229 45.1924 85.0002 43.7833C85.0002 42.8515 85.9774 42.2833 86.932 42.6469Z" fill="#FF4D4D"/>
<path d="M84.2044 49.1696C82.7044 49.6696 81.9544 50.1469 80.9771 51.2151C79.2953 53.056 78.8635 54.4424 79.818 55.1015C80.2498 55.4196 81.2498 55.4651 86.1817 55.4651C89.3862 55.4651 92.2726 55.3742 92.568 55.2605C93.3862 54.9424 93.4999 54.2833 92.9999 53.1242C91.9089 50.6696 89.5226 49.0787 86.7044 48.9424C85.7726 48.9196 84.7271 49.0105 84.2044 49.1696ZM87.8635 51.4878C88.4999 51.6696 89.2499 52.0787 89.5453 52.3969L90.068 52.9651H86.2953C84.2044 52.9651 82.4998 52.9196 82.4998 52.8742C82.4998 52.6469 83.9771 51.7378 84.7499 51.4651C85.8408 51.0787 86.4999 51.0787 87.8635 51.4878Z" fill="#FF4D4D"/>
<path d="M13.3181 69.3739C12.8636 70.033 12.7954 74.7148 13.25 75.283C13.7045 75.8512 14.2727 75.9194 14.8181 75.4648C15.2954 75.0785 15.3409 74.8512 15.409 72.5785C15.4772 69.8057 15.25 69.033 14.2727 68.9194C13.8636 68.8739 13.5681 69.0103 13.3181 69.3739Z" fill="#FF4D4D"/>
<path d="M84.5912 69.1468C84.4094 69.3286 84.3185 70.3741 84.3185 72.3059C84.3185 75.0559 84.3412 75.2377 84.8185 75.5559C85.4776 76.0105 85.5912 76.0105 86.1367 75.465C86.5458 75.0559 86.5912 74.715 86.5912 72.3059C86.5912 70.1468 86.523 69.5104 86.2276 69.2377C85.8185 68.8059 84.9776 68.7604 84.5912 69.1468Z" fill="#FF4D4D"/>
<path d="M46.1593 71.6014C41.7956 72.7832 38.3865 75.9878 36.9093 80.3514C36.3865 81.8514 36.2729 82.5787 36.2729 84.4423C36.2729 88.3514 37.4093 91.056 40.2274 93.8742C42.8865 96.5332 45.7729 97.7378 49.5456 97.7378C53.2275 97.7378 56.2047 96.5332 58.7729 93.9878C61.5456 91.2378 62.8184 88.2605 62.8184 84.556C62.8184 81.2605 61.6593 78.1241 59.5456 75.6469C58.2956 74.215 55.5456 72.3969 53.682 71.8059C51.4547 71.1014 48.3184 71.0105 46.1593 71.6014ZM51.5002 73.6696C54.3411 74.1923 57.2729 76.1696 58.8638 78.6469C61.0002 81.965 61.0002 86.9423 58.8638 90.306C57.3865 92.6469 54.6365 94.6242 52.0456 95.2151C47.7729 96.1923 43.0229 94.3742 40.5683 90.8287C38.0911 87.2151 37.9547 82.1923 40.2274 78.6469C41.7729 76.2378 44.4547 74.3514 47.1365 73.7605C48.8865 73.3741 49.7956 73.3514 51.5002 73.6696Z" fill="#FF4D4D"/>
<path d="M47.5003 75.988C46.4094 76.5562 45.4548 78.0107 45.4548 79.0789C45.4548 80.0107 46.3867 81.6471 47.2503 82.2153C48.7957 83.2607 51.1367 82.7153 52.2048 81.1243C52.7048 80.3743 52.773 80.0562 52.6821 78.8743C52.5912 77.7607 52.4548 77.3743 51.9094 76.8062C50.6139 75.3971 49.1139 75.1243 47.5003 75.988ZM50.1821 78.238C50.5685 78.5789 50.523 79.5562 50.0685 80.0562C49.2957 80.9198 47.9548 80.3289 47.9548 79.1016C47.9548 77.9652 49.2048 77.488 50.1821 78.238Z" fill="#FF4D4D"/>
<path d="M46.4318 84.6926C45.1363 85.1699 43.2727 86.8744 42.5909 88.2154C41.9318 89.5335 41.9091 89.829 42.4545 90.3063C42.8182 90.6472 43.6363 90.6926 49.2273 90.6926C53.8864 90.6926 55.6591 90.6244 55.8636 90.4199C56.3182 89.9654 56.1818 89.0563 55.4545 87.829C54.7273 86.5335 53.8182 85.6926 52.4091 84.9653C51.1818 84.3063 47.8409 84.1699 46.4318 84.6926ZM51.25 87.0335C51.75 87.2608 52.3636 87.6699 52.5909 87.9426L53.0227 88.4199H49.0909C45.4773 88.4199 45.2045 88.3972 45.4773 88.0335C45.6591 87.829 46.3182 87.4199 46.9318 87.1472C48.3182 86.4881 49.9773 86.4426 51.25 87.0335Z" fill="#FF4D4D"/>
<path d="M13.4091 79.556C13 79.9651 12.9546 80.306 12.9546 82.5788C12.9546 86.1924 12.9091 86.1469 16.4546 86.1469C18.9773 86.1469 19.2955 86.1015 19.6591 85.6924C20 85.3288 20.0455 85.1015 19.8637 84.6015C19.6591 84.0106 19.6137 83.9879 17.5682 83.9197L15.5 83.8515L15.4091 81.806C15.3637 80.0788 15.2727 79.6924 14.9091 79.4197C14.2955 78.9878 13.9546 79.0106 13.4091 79.556Z" fill="#FF4D4D"/>
<path d="M84.7725 79.3286C84.5225 79.4877 84.4088 80.124 84.3179 81.6468L84.2043 83.7604L82.0906 83.874C80.5679 83.9649 79.9316 84.0786 79.7725 84.3286C79.477 84.8059 79.4997 85.0559 79.9088 85.6468C80.227 86.124 80.4088 86.1468 83.0452 86.1468C86.6816 86.1468 86.5907 86.2377 86.5907 82.5786C86.5907 80.2377 86.5225 79.8059 86.1816 79.4877C85.7043 79.0559 85.2725 79.0104 84.7725 79.3286Z" fill="#FF4D4D"/>
<path d="M23.6817 84.147C23.2953 84.5333 23.3408 85.3742 23.7726 85.7833C24.0453 86.0788 24.659 86.147 26.7272 86.147C28.1817 86.147 29.5453 86.0333 29.7953 85.9197C30.2953 85.647 30.3863 84.5788 29.9544 84.147C29.5681 83.7606 24.0681 83.7606 23.6817 84.147Z" fill="#FF4D4D"/>
<path d="M69.5906 84.147C69.2043 84.5333 69.2497 85.3742 69.6815 85.7833C69.9543 86.0788 70.5679 86.147 72.6361 86.147C74.0906 86.147 75.4543 86.0333 75.7043 85.9197C76.2043 85.647 76.2952 84.5788 75.8634 84.147C75.477 83.7606 69.977 83.7606 69.5906 84.147Z" fill="#FF4D4D"/>
</svg>
