<svg width="200" height="48" viewBox="0 0 200 48" fill="none" xmlns="http://www.w3.org/2000/svg">
<g clip-path="url(#clip0_6_1291)">
<path d="M58.539 29.5874L64.3053 30.6042L64.0163 32.2429L58.2501 31.2262L58.539 29.5874ZM60.0316 31.9627L62.08 32.3239L61.1987 37.322L59.1503 36.9608L60.0316 31.9627Z" fill="#FF4D4D"/>
<path d="M62.3818 32.731L62.4276 32.471L64.0223 32.7522L65.5829 38.4961L65.1808 39.1043L64.0542 38.9057L62.3818 32.731ZM66.7144 36.7923L66.6797 36.7862L65.8515 38.0878L65.3874 36.3618L67.3241 33.3345L68.9707 33.6248L67.9194 39.5872L66.2727 39.2969L66.7144 36.7923ZM62.2305 33.589L63.2261 37.2674L62.9709 38.7146L61.3763 38.4335L62.2305 33.589Z" fill="white"/>
<path d="M0.230408 14.3872H14.6432V18.4832H0.230408V14.3872ZM4.86401 19.5072H9.98401V32H4.86401V19.5072ZM16.539 14.3872H21.659V32H16.539V14.3872ZM22.7342 14.3872H29.2366V18.304H22.7342V14.3872ZM22.7342 21.1456H28.0334V25.0624H22.7342V21.1456ZM22.7342 28.0832H29.2366V32H22.7342V28.0832ZM30.8804 14.3872H36.6916L47.8788 32H42.042L30.8804 14.3872ZM40.25 17.9712L42.1956 14.3872H47.802L42.938 22.2208L40.25 17.9712ZM35.6932 24.0128L38.3556 28.2368L36.3844 32H30.778L35.6932 24.0128Z" fill="#FF4D4D"/>
<path d="M98.464 15.1552V14.3872H103.174L110.547 30.0544L109.702 32H106.374L98.464 15.1552ZM112.928 24.6016H112.826L111.11 28.7488L108.909 24.0384L112.928 14.3872H117.792V32H112.928V24.6016ZM98.464 17.6896L103.174 27.7248V32H98.464V17.6896ZM125.108 14.3872H125.543L127.566 21.4016L124.622 32H119.502L125.108 14.3872ZM130.868 28.8768H126.593L127.668 24.9344H129.716L126.695 14.3872H131.38L136.986 32H131.764L130.868 28.8768ZM144.526 14.208C144.662 14.191 144.876 14.1824 145.166 14.1824H145.831C146.975 14.1824 148.093 14.2678 149.185 14.4384C149.748 14.5238 150.183 14.609 150.49 14.6944V18.3552C150.234 18.3382 149.808 18.2954 149.21 18.2272C148.409 18.1418 147.709 18.0992 147.111 18.0992C146.446 18.0992 145.908 18.1248 145.498 18.176C145.106 18.2102 144.782 18.2784 144.526 18.3808V14.208ZM145.831 32.2048C144.125 32.2048 142.768 32.0598 141.761 31.7696C140.771 31.4624 140.02 30.959 139.508 30.2592C139.014 29.5936 138.672 28.7146 138.484 27.6224C138.314 26.513 138.228 25.0368 138.228 23.1936C138.228 21.5722 138.288 20.2582 138.407 19.2512C138.544 18.2442 138.783 17.3994 139.124 16.7168C139.482 16.017 140.003 15.4794 140.686 15.104C141.386 14.7114 142.307 14.447 143.45 14.3104V23.1936C143.45 24.1494 143.468 25.071 143.502 25.9584C143.536 26.641 143.664 27.153 143.886 27.4944C144.125 27.8358 144.492 28.049 144.986 28.1344C145.465 28.2368 146.173 28.288 147.111 28.288C148.084 28.288 148.912 28.2454 149.594 28.16C149.868 28.143 150.201 28.1002 150.593 28.032V31.744C149.757 31.9318 148.81 32.0598 147.751 32.128C147.171 32.1792 146.531 32.2048 145.831 32.2048ZM151.806 14.3872H166.218V18.4832H151.806V14.3872ZM156.439 19.5072H161.559V32H156.439V19.5072ZM168.114 14.3872H173.234V32H168.114V14.3872ZM174.31 14.3872H180.812V18.304H174.31V14.3872ZM174.31 21.1456H179.608V25.0624H174.31V21.1456ZM174.31 28.0832H180.812V32H174.31V28.0832ZM183.889 14.3872H189.009V32H183.889V14.3872ZM190.084 22.6048H190.698C191.245 22.6048 191.646 22.5878 191.902 22.5536C192.175 22.5024 192.388 22.4 192.542 22.2464C192.695 22.1098 192.79 21.9136 192.823 21.6576C192.874 21.3846 192.9 20.9834 192.9 20.4544C192.9 19.9254 192.874 19.5328 192.823 19.2768C192.79 19.0038 192.695 18.7904 192.542 18.6368C192.388 18.5002 192.175 18.415 191.902 18.3808C191.629 18.3296 191.228 18.304 190.698 18.304H190.084V14.3872H192.209C193.472 14.3872 194.496 14.5152 195.281 14.7712C196.083 15.0102 196.689 15.3856 197.098 15.8976C197.491 16.3754 197.756 16.9814 197.892 17.7152C198.029 18.432 198.097 19.345 198.097 20.4544C198.097 21.5126 198.029 22.3914 197.892 23.0912C197.773 23.791 197.526 24.3798 197.15 24.8576C196.723 25.4038 196.109 25.8218 195.306 26.112C194.522 26.385 193.489 26.5216 192.209 26.5216H190.084V22.6048Z" fill="white"/>
<path d="M80.4064 0.152238C78.7016 0.522488 77.3863 1.26299 75.9442 2.66604C75.4765 3.11424 74.9309 3.64038 74.736 3.82551C74.2294 4.30293 73.9858 5.04344 73.8689 6.34905C73.7519 7.7716 73.8494 13.8125 74.0345 15.8976C74.1124 16.8038 74.1709 17.5734 74.1709 17.6027C74.1709 17.6319 73.7617 17.6514 73.2745 17.6514C72.4755 17.6514 72.3099 17.6806 71.8617 17.9242C70.8387 18.4602 69.7767 19.6488 68.052 22.1821C67.672 22.7472 66.9121 23.7118 66.3664 24.3257C65.8306 24.9395 65.2751 25.6313 65.1387 25.8554C64.9439 26.1866 64.8562 26.2646 64.6906 26.2256C64.1742 26.099 58.4451 25.1538 55.561 24.7154C53.8169 24.4426 52.1118 24.16 51.7611 24.0821C50.9621 23.9067 49.3739 23.7898 48.8965 23.8774C48.3314 23.9846 48.1559 24.2282 48.1559 24.881C48.1559 27.0149 49.5395 34.9655 50.7477 39.769C50.9913 40.7434 51.0595 40.87 51.5077 41.0259C52.1313 41.2598 54.9959 42.0879 57.4123 42.731C58.6204 43.0526 60.6178 43.5884 61.8455 43.9099C63.0829 44.2412 65.8013 44.9914 67.8864 45.5761C69.9812 46.1606 72.5243 46.8622 73.5376 47.135C74.5607 47.4078 75.5837 47.7098 75.8175 47.817C76.5093 48.1191 76.7431 48.0704 77.357 47.4955C78.1365 46.755 78.575 46.1314 79.4421 44.4848C80.3576 42.7602 80.7184 42.1854 82.092 40.2757C82.6672 39.4767 83.2128 38.6972 83.3008 38.5413C83.4952 38.2101 83.476 38.2101 84.5768 38.5998C85.7752 39.0187 86.964 39.2136 89.692 39.428C92.42 39.6326 93.0048 39.6131 93.96 39.2818C95.7232 38.6582 96.4344 37.2942 96.4248 34.5562C96.4152 33.8353 96.4056 31.604 96.4056 29.6066C96.3856 26.0113 96.2888 24.6472 95.9864 23.6436C95.2168 21.1103 93.7648 19.7268 90.9104 18.8109C90.2576 18.6062 90.0528 18.4894 90.0136 18.3334C89.916 17.9632 89.38 17.2519 88.9616 16.9499C88.6304 16.7161 88.5136 16.5504 88.4256 16.2094C88.3576 15.9658 88.2016 15.6442 88.0744 15.4982L87.8408 15.235L88.2112 14.6992C88.8736 13.7541 89.2048 12.5654 88.9808 11.9028C88.9128 11.7079 88.7376 11.4059 88.5912 11.2305L88.3184 10.9187L88.4544 10.149C89.156 6.25162 89.2048 5.57933 88.8832 4.52704C88.6688 3.81577 88.24 3.33833 87.6656 3.13373C87.344 3.02655 87.2664 2.93885 87.1104 2.51015C86.7208 1.4676 85.6 0.590692 84.1576 0.200955C83.2424 -0.0426303 81.4008 -0.0718605 80.4064 0.152238ZM84.1576 1.14607C85.2784 1.48709 85.9704 2.10093 86.3016 3.05578C86.4184 3.37731 86.4184 3.43577 86.272 3.54295C86.0384 3.72808 85.9608 3.69885 85.9608 3.3968C85.9608 3.25065 85.8728 2.95834 85.7752 2.74399C85.376 1.88657 84.528 1.41889 83.232 1.35068C82.2576 1.30197 82.2776 1.41889 83.2808 1.66247C84.7816 2.03272 85.6488 2.86091 85.4344 3.71833C85.356 4.03012 85.2296 3.96192 85.152 3.58193C85.0736 3.19219 84.5376 2.60758 84.0608 2.39322C83.7488 2.24708 83.4176 2.2081 82.336 2.2081C81.5952 2.2081 80.9912 2.24708 80.9912 2.29579C80.9912 2.42245 81.332 2.49066 82.4336 2.59784C83.5736 2.70501 84.1776 2.91937 84.4792 3.34808C84.7816 3.77679 84.8208 4.05935 84.616 4.43934C84.3824 4.86805 84.2064 4.93626 84.2064 4.59524C84.2064 4.08858 83.7192 3.48449 83.0376 3.12398C82.7744 2.98757 82.3648 2.93885 81.1864 2.89014C80.3576 2.85117 79.6565 2.83168 79.6467 2.85117C79.6272 2.86091 79.7247 2.9486 79.8611 3.03629C79.9975 3.13373 80.4648 3.2409 80.9136 3.28962C82.2576 3.43577 82.8328 3.55269 83.0568 3.70859C83.2616 3.85474 83.252 3.86449 82.696 3.88397C80.6792 3.93269 80.2408 3.94243 80.0656 3.93269C79.4226 3.92294 78.4385 3.97166 77.4837 4.05935C77.4057 4.06909 77.055 4.03986 76.7042 3.99115L76.0709 3.9132L76.8991 3.07526C77.5908 2.38349 77.8734 2.17887 78.6529 1.79888C80.5624 0.882998 82.5304 0.63941 84.1576 1.14607ZM87.5192 4.14704C88.4064 4.77062 88.3768 6.22239 87.3736 11.0259C87.344 11.1428 87.1688 11.289 86.9344 11.3864C86.7208 11.4741 86.5448 11.5423 86.5448 11.5326C86.5448 11.5228 86.6136 11.3377 86.6912 11.1234C86.7688 10.909 86.828 10.5582 86.828 10.3438V9.95416L86.496 10.6362C86.3208 11.0064 86.068 11.4449 85.9312 11.6007L85.6976 11.893L85.7464 10.8992C85.7944 9.78848 85.668 9.5644 85.5024 10.4802C85.3272 11.3962 84.976 12.6336 84.8792 12.6336C84.8304 12.6336 84.7912 12.1854 84.7912 11.63C84.7912 10.1198 84.4304 8.3952 83.9728 7.74237C83.8168 7.52801 83.8168 7.52801 83.8168 7.85929C83.8168 8.0444 83.8656 8.37568 83.9144 8.59008C83.9632 8.8044 83.9824 8.99928 83.9536 9.02848C83.856 9.11616 83.0376 8.10288 82.9304 7.75211C82.8328 7.43057 82.8424 7.37211 83.1448 6.94341C83.4368 6.53418 83.4952 6.49521 83.7584 6.55367C84.7032 6.75828 85.0448 7.10904 85.288 8.11264C85.3856 8.52184 85.4928 8.88232 85.5216 8.9116C85.5512 8.9408 85.5704 8.62904 85.5704 8.21008C85.5704 7.05058 85.2688 6.56341 84.3624 6.21265C83.9632 6.06649 83.924 6.02752 84.0608 5.9106C84.1384 5.8424 84.4208 5.76445 84.6744 5.74497C85.2488 5.69625 85.6584 5.93009 85.98 6.48546C86.3888 7.20648 86.496 6.92392 86.1064 6.1347C85.9216 5.76445 85.756 5.58907 85.4248 5.41369C84.9376 5.15061 85.0056 5.03369 85.6488 5.03369C86.2232 5.03369 86.3992 5.15061 86.6032 5.66701C86.7688 6.11521 86.7688 6.56341 86.584 8.05416C86.5064 8.73616 86.652 8.62904 86.9344 7.81057C87.1976 7.07007 87.2856 6.08598 87.1392 5.55009C87.0224 5.14087 86.4768 4.54652 86.204 4.54652C86.1264 4.54652 86.0576 4.49781 86.0576 4.44909C86.0576 4.26397 86.428 4.35165 86.7304 4.59524C87.0032 4.83882 87.1688 5.20908 87.4216 6.19316C87.5584 6.7193 87.7144 6.57315 87.7144 5.93009C87.7144 5.18959 87.5192 4.64396 87.1008 4.22499L86.7104 3.83525L86.9936 3.90345C87.1488 3.94243 87.3832 4.04961 87.5192 4.14704ZM80.2312 4.82908C80.4648 5.07267 80.6504 5.40394 80.748 5.7547C80.8352 6.05675 80.952 6.28085 81.0008 6.25162C81.1568 6.14445 81.0888 5.29677 80.8936 4.84857C80.7864 4.61473 80.6992 4.41011 80.6992 4.39063C80.6992 4.30293 81.3128 4.3614 81.6048 4.48806C82.0336 4.67319 82.2384 4.92652 82.2872 5.35522C82.336 5.81317 82.404 5.88137 82.5504 5.60856C82.628 5.47215 82.648 5.18959 82.6184 4.86805C82.5696 4.39063 82.5792 4.35165 82.7648 4.35165C83.2712 4.35165 83.456 4.90703 83.232 5.71573C83.1056 6.18341 82.2192 7.15776 81.7224 7.38185C81.04 7.69365 78.5263 7.55724 76.9867 7.12853C76.0611 6.8752 75.7103 6.90443 75.0771 7.29417L74.7555 7.48904L74.7653 6.81674C74.7653 6.01778 74.8627 5.42343 74.9991 5.3942C75.0575 5.38445 75.1843 5.55984 75.2914 5.78393C75.3986 6.01778 75.5155 6.2029 75.5545 6.2029C75.6909 6.2029 75.6422 5.52086 75.4863 5.22856C75.3401 4.95574 75.3499 4.93626 75.5252 4.93626C75.7883 4.93626 76.2267 5.326 76.7822 6.03726C77.0939 6.45623 77.2499 6.59264 77.2693 6.47572C77.318 6.2029 76.8211 5.28702 76.3924 4.83882L75.9735 4.4296L76.4606 4.49781C77.055 4.57575 77.4057 4.75113 77.6688 5.09215C77.8734 5.35522 77.8831 5.38445 78.0683 6.08598C78.1267 6.31008 78.2144 6.47572 78.2631 6.44649C78.4385 6.33931 78.3703 5.38445 78.1657 4.98497C77.9221 4.50755 77.9221 4.44909 78.1657 4.44909C78.7211 4.44909 79.3739 5.08241 79.7247 5.96906C79.9975 6.67059 80.1144 6.81674 80.1144 6.46597C80.1144 5.77419 79.6759 4.54652 79.4226 4.54652C79.3739 4.54652 79.3349 4.49781 79.3349 4.43934C79.3349 4.22499 79.8708 4.45883 80.2312 4.82908ZM76.8503 7.70339C78.6919 8.32696 81.0008 8.41464 82.18 7.90801C82.3064 7.85929 82.3752 7.89826 82.4432 8.08336C82.5016 8.21976 82.8232 8.64848 83.1736 9.01872C84.0704 10.0028 84.216 10.4413 84.304 12.3413C84.372 13.871 84.4304 14.1925 84.6256 14.1925C84.6936 14.1925 84.9864 13.9197 85.2784 13.5884C86.2336 12.5166 86.6816 12.0977 87.1592 11.8541L87.6264 11.6105L87.88 11.893C88.0848 12.1366 88.1136 12.2536 88.0848 12.6238C88.0264 13.189 87.5976 14.095 87.188 14.5335C86.6616 15.0791 86.6136 14.9233 87.0808 14.2412C87.8216 13.1597 87.88 12.4387 87.2368 12.273C86.7688 12.1562 86.3408 12.5069 85.9312 13.3351C85.3856 14.4263 85.5024 14.6212 86.136 13.6761C86.9448 12.4874 87.4808 12.4971 86.8472 13.6761C86.428 14.4556 86.0384 14.855 85.5904 14.933C85.3952 14.972 85.1416 15.0499 85.0352 15.1084C84.8688 15.1961 84.9176 15.2253 85.376 15.2643L85.912 15.313L85.3856 15.5858C85.1032 15.7417 84.6936 15.8976 84.4696 15.9268C84.0704 15.995 84.0704 16.0048 83.9144 16.6284C83.7192 17.4566 83.3392 18.0996 82.5992 18.8304C81.2248 20.2139 78.9062 21.1786 77.6201 20.9154C76.7139 20.7206 75.9637 19.8632 75.3499 18.3042C75.0186 17.4663 74.853 15.5371 74.7945 11.8541C74.736 8.59008 74.7458 8.48288 74.9407 8.1808C75.1355 7.86903 75.7396 7.47929 76.0222 7.47929C76.1001 7.46955 76.4801 7.57673 76.8503 7.70339ZM87.3536 16.0827C87.4416 16.1997 87.5392 16.4822 87.5776 16.6868C87.6264 16.9304 87.7536 17.1545 87.9384 17.3104C88.6592 17.9145 89.0688 18.3627 89.1368 18.6258C89.1952 18.8791 89.156 18.9473 88.776 19.2883C86.74 21.1103 85.2008 21.9873 83.0864 22.5231L82.2096 22.7472L82.8032 22.757C84.4696 22.7765 86.4184 21.8508 88.7176 19.9606L89.4776 19.337L90.5792 19.6878C93.0248 20.4867 94.408 21.7729 95.0704 23.8678C95.324 24.6667 95.5384 26.2062 95.4896 26.859L95.46 27.2974L95.2168 26.9077C94.8856 26.3718 94.2616 25.6995 93.9304 25.5338C93.6088 25.3682 93.5704 25.4851 93.8624 25.7482C94.2232 26.0795 94.9048 27.2877 95.1776 28.0769C95.4112 28.7686 95.4312 28.983 95.4216 30.045C95.4112 30.8733 95.3528 31.3506 95.256 31.604C94.7296 32.8512 93.492 34.0886 92.3128 34.5173C91.612 34.7803 91.5824 34.8778 92.2256 34.8194C92.5376 34.7901 93.0248 34.6439 93.3264 34.4978C93.8624 34.2347 94.7584 33.4358 95.1872 32.8512L95.4016 32.5589V33.2019C95.4112 33.7962 95.3824 33.8937 95.012 34.4686C93.9696 36.0762 93.0928 36.8947 92.3912 36.8947C92.128 36.8947 91.9328 36.807 91.6312 36.5439C91.1928 36.1639 91.1048 36.2516 91.4168 36.7486C91.6408 37.109 92.128 37.3818 92.5472 37.3818C93.2096 37.3818 94.4472 36.3588 95.0704 35.287C95.2168 35.0434 95.3528 34.8486 95.3824 34.8486C95.4112 34.8486 95.4112 35.2188 95.3824 35.6767C95.2848 37.0506 94.8072 37.8203 93.736 38.3172C93.1216 38.5998 93.112 38.5998 91.4656 38.5706C90.5592 38.551 89.4392 38.5121 88.9808 38.4731C88.0456 38.3952 88.1232 38.5121 88.26 37.4111C88.3184 36.9629 88.192 35.745 88.0456 35.209C87.9192 34.7901 87.812 35.2383 87.812 36.1639C87.812 37.2357 87.6752 38.0834 87.4904 38.249C87.412 38.3074 87.1008 38.2978 86.5544 38.2003C84.976 37.9275 83.5536 37.2942 82.8424 36.5634L82.5112 36.2126L83.0664 35.0922L83.6224 33.9717H84.0408C84.2648 33.9717 85.1224 34.0788 85.9408 34.2153C86.7592 34.3517 87.4704 34.4588 87.5288 34.4588C87.5776 34.4588 87.6752 34.3322 87.724 34.1762C87.8504 33.8158 88.1528 33.7573 89.0104 33.9132C89.7504 34.0594 89.7504 34.0496 89.5168 33.3773C89.3704 32.9681 89.2928 31.867 89.4 31.7599C89.4288 31.7306 89.5464 31.8866 89.6432 32.0912C90.0432 32.8609 91.3192 34.3224 91.3192 34.0106C91.3192 33.9717 91.0856 33.543 90.7928 33.0558C89.536 30.9317 89.5464 30.9902 89.7216 28.5835C89.8776 26.3426 90.0624 25.4364 90.5888 24.4036C90.7832 24.0236 90.92 23.6923 90.8904 23.6631C90.7736 23.5559 90.0624 24.4329 89.7704 25.0272C89.3704 25.8554 89.1368 26.9466 88.8936 29.1097C88.776 30.1035 88.64 31.0681 88.5912 31.2533C88.5328 31.4286 88.4936 31.8768 88.4936 32.2276V32.8706L88.0552 32.9194C87.8016 32.9486 87.4808 33.0753 87.2952 33.2214C87.0128 33.4358 86.9152 33.4553 86.584 33.387C86.3792 33.3481 86.0288 33.2798 85.824 33.2409L85.444 33.1824L85.9504 32.9486C86.6912 32.6076 87.2952 32.1594 87.568 31.7599C87.6944 31.565 87.792 31.3897 87.7728 31.3702C87.7632 31.3506 87.412 31.5553 87.0128 31.8281C86.1744 32.3932 85.2104 32.7538 84.1576 32.9194C83.4664 33.0266 83.388 33.0168 82.6768 32.7732C82.2576 32.6368 81.2152 32.3153 80.368 32.0717C79.5103 31.8378 78.7795 31.5845 78.7308 31.5163C78.6723 31.4189 78.6334 30.581 78.6529 29.8112C78.6529 29.7722 78.8088 29.7527 78.9939 29.7722C79.4421 29.8014 79.4226 29.7235 78.9549 29.5286C78.6723 29.4214 78.5652 29.3143 78.5263 29.1097C78.4678 28.8174 78.0878 28.6128 77.6299 28.6128C77.3473 28.6128 76.1975 27.4143 75.5837 26.479C75.3401 26.0892 74.9504 25.3974 74.736 24.9298C74.2975 23.9944 74.1709 23.9944 74.4145 24.92C74.6483 25.8651 75.0381 26.6349 75.7103 27.5313C76.2171 28.2035 76.2852 28.3302 76.1001 28.2913C75.9735 28.262 74.9114 28.0477 73.7325 27.8235C72.5535 27.5994 71.5791 27.4046 71.5597 27.3949C71.4623 27.3071 71.7935 26.9466 72.1735 26.7128C73.0017 26.2354 73.1381 25.7385 72.8653 24.1795C72.7874 23.7508 72.6996 22.8057 72.6607 22.0847C72.5827 20.5258 72.5048 20.1458 72.4074 20.9154C72.2807 21.9093 72.3197 23.6631 72.4755 24.5693C72.6704 25.6605 72.6023 25.8651 71.8617 26.3718C71.5791 26.5569 71.2869 26.8492 71.1991 27.0246C71.0627 27.3071 71.014 27.3364 70.7315 27.2779C70.1371 27.161 70.0299 27.083 69.8546 26.6056C69.5525 25.7579 69.3967 24.7836 69.3967 23.7118C69.3967 23.137 69.3577 22.6693 69.309 22.6693C69.192 22.6693 69.0069 23.6826 69.0069 24.3842C69.0069 25.0174 69.2018 26.2256 69.3869 26.703C69.4551 26.859 69.4843 26.9954 69.4746 27.0051C69.4551 27.0246 68.7048 26.9077 67.789 26.7518C66.8828 26.5959 66.0741 26.4692 66.0059 26.4692C65.8013 26.4692 66.1034 26.0113 66.9705 25.0272L67.7695 24.1113L67.9351 24.7544C68.091 25.3877 68.3639 25.8846 68.5977 25.9626C68.6756 25.9821 68.6367 25.8066 68.51 25.4754C68.3541 25.1149 68.2956 24.7349 68.2859 24.2282L68.2762 23.4974L69.2797 22.0165C70.8484 19.7073 71.7838 18.8109 72.8166 18.5868C73.4889 18.4406 74.1709 18.6062 74.1709 18.9083C74.1709 19.0253 74.2391 19.376 74.3171 19.6975C74.6775 21.0811 75.4863 22.1724 76.4899 22.6401C77.1524 22.9518 77.357 22.8837 76.7822 22.5426C75.8955 22.0262 74.9699 20.6914 74.8043 19.6975L74.7458 19.3078L75.0186 19.8339C75.4181 20.6037 76.0514 21.2565 76.6847 21.5682C77.1914 21.8118 77.3278 21.8411 78.2144 21.8314C79.3447 21.8118 80.3192 21.539 81.3808 20.9447C81.732 20.7498 82.4336 20.3796 82.94 20.1068C83.4464 19.8437 84.0704 19.4734 84.3232 19.2883C84.9568 18.8304 85.6584 18.0314 85.8824 17.515C86.1648 16.8427 86.048 16.7063 85.7072 17.3104C85.532 17.6027 85.2104 18.0217 84.976 18.2458C84.5376 18.6453 83.8264 19.1617 83.7096 19.1617C83.6704 19.1617 83.8264 18.8791 84.0608 18.5283C84.2944 18.1776 84.5864 17.6319 84.7032 17.3104C84.8984 16.7648 84.9376 16.7258 85.3664 16.5797C85.6096 16.5017 86.0384 16.2971 86.3016 16.1412C86.896 15.7904 87.1592 15.771 87.3536 16.0827ZM50.6795 24.9687L51.2739 25.037V25.4072C51.2739 25.719 51.3128 25.7872 51.4979 25.8359C51.6149 25.8554 52.3456 26.0113 53.1251 26.1672C54.4112 26.4302 55.4343 26.6251 61.2609 27.6969C62.2839 27.882 64.1839 28.2815 65.4993 28.5738C69.7474 29.5286 71.4525 29.8502 73.6935 30.1327C76.2171 30.4446 76.2171 30.4446 76.2171 29.7235C76.2171 29.4897 76.256 29.2948 76.295 29.2948C76.6263 29.2948 77.5031 29.5482 77.6006 29.665C77.7857 29.8794 77.7663 33.2117 77.5616 35.628C77.4642 36.729 77.3473 38.3952 77.2888 39.3306C77.1427 41.7664 76.7529 44.933 76.4119 46.5017L76.3047 46.9986L75.7007 46.7842L75.0965 46.5602L75.0673 46.1217C75.0479 45.8781 74.9796 45.6346 74.9211 45.5761C74.853 45.5274 73.5279 45.1571 71.9787 44.7576C70.4197 44.3582 68.2762 43.7833 67.2043 43.4812C66.1326 43.189 64.4665 42.7213 63.5019 42.4484C60.1307 41.513 57.344 40.7726 55.181 40.2464C52.8718 39.6813 52.7354 39.6813 52.7354 40.1685C52.7354 40.3828 52.7062 40.4023 52.4723 40.3438C51.9169 40.2074 51.7903 40.1198 51.7318 39.847C51.7026 39.7008 51.4785 38.7362 51.2349 37.7131C50.2216 33.4066 49.1303 27.0246 49.1303 25.4462V24.9102H49.6078C49.8611 24.9102 50.3483 24.9395 50.6795 24.9687ZM54.2164 25.4462C57.2174 25.8943 58.2307 26.06 61.9916 26.7128C63.7357 27.0149 66.4054 27.4728 67.9351 27.7358C70.8679 28.2328 72.534 28.5446 74.6094 28.9441C75.3109 29.0805 75.8858 29.1974 75.9052 29.1974C75.9247 29.1974 75.9247 29.2948 75.9052 29.4118C75.876 29.6261 75.8468 29.6358 74.853 29.6163C74.2879 29.5969 73.4402 29.5482 72.953 29.4897C71.9884 29.3728 68.3735 28.6615 66.5321 28.223C65.0121 27.8626 61.4752 27.1415 59.6045 26.8102C57.1102 26.3815 52.7354 25.5436 52.1313 25.3877C51.9267 25.339 51.7611 25.2513 51.7611 25.2026C51.7611 25.0759 51.6539 25.0662 54.2164 25.4462ZM80.6696 33.1532C81.6736 33.4455 82.5408 33.7281 82.5792 33.767C82.628 33.8158 82.4232 34.3322 82.1216 34.9265L81.5856 35.9983L81.0984 36.0665C80.8256 36.1054 80.124 36.0762 79.52 36.008L78.4385 35.8814L78.497 35.5403C78.5263 35.3454 78.575 34.6634 78.6042 34.0204C78.6627 32.8706 78.7016 32.6076 78.7893 32.6076C78.8088 32.6076 79.6565 32.8512 80.6696 33.1532ZM80.4752 36.9434L81.8584 36.9726L82.2576 37.2942C82.472 37.4695 82.648 37.6546 82.648 37.7229C82.648 37.8301 81.644 39.3403 80.9232 40.3146C80.1144 41.3962 79.3544 42.6141 78.8965 43.5202C78.3021 44.7089 77.5714 45.9755 77.5129 45.9268C77.4935 45.8976 77.5129 45.6248 77.5714 45.313C77.6201 44.9914 77.737 44.1438 77.8247 43.4228C77.9124 42.7018 78.0001 41.971 78.0293 41.8054C78.0488 41.6494 78.2729 41.2305 78.5263 40.8798C79.0329 40.1879 79.5298 39.2721 79.5298 39.0285C79.5298 38.8044 79.374 38.707 78.7601 38.5023C78.2631 38.3367 78.2437 38.327 78.3021 38.0444C78.3314 37.8788 78.3606 37.528 78.3606 37.2552V36.768L78.7308 36.846C78.9257 36.885 79.7149 36.9337 80.4752 36.9434ZM78.7893 39.1454C78.8965 39.2429 78.7211 39.6813 78.4093 40.0613L78.1755 40.3536L78.1657 39.9541C78.1657 39.73 78.195 39.4085 78.2242 39.2429C78.2827 38.9895 78.3216 38.9506 78.497 38.9993C78.6042 39.0285 78.7406 39.0967 78.7893 39.1454ZM55.8533 40.9966C57.1687 41.3182 58.8738 41.7566 59.6532 41.971C62.7224 42.8187 63.9695 43.1694 65.9377 43.715C69.5915 44.7284 70.0982 44.8648 72.2612 45.4202C73.4304 45.7125 74.4047 45.9561 74.4243 45.9561C74.4437 45.9561 74.4632 46.0633 74.4632 46.1899V46.4238L73.713 46.2289C73.294 46.1314 72.6023 45.9366 72.1735 45.8099C71.7448 45.6735 70.6048 45.352 69.6403 45.0889C68.6756 44.8258 67.029 44.3679 65.9864 44.0756C64.9439 43.7833 63.4921 43.3838 62.7711 43.189C54.4503 40.9772 53.3979 40.6751 53.3395 40.5192C53.32 40.451 53.3395 40.4023 53.3882 40.4023C53.4369 40.4023 54.5477 40.6654 55.8533 40.9966Z" fill="#E0E0E0"/>
<path d="M76.8309 14.212C76.7529 14.8356 76.6263 15.3227 76.4216 15.771C76.0514 16.5699 76.0319 17.0376 76.3437 17.3494C76.5386 17.5443 76.7139 17.5832 77.5324 17.6515L78.497 17.7196L78.7795 17.4079C79.0134 17.1448 79.0523 17.0279 79.0036 16.7355C78.9744 16.5407 78.8575 16.3166 78.7503 16.2191C78.6431 16.1315 78.5555 16.0146 78.5555 15.9561C78.5555 15.7807 78.3899 15.8391 78.3314 16.034C78.3119 16.1412 78.3606 16.2776 78.4678 16.3751C78.6919 16.5602 78.7114 16.9499 78.497 17.1253C78.3801 17.2227 78.2339 17.2227 77.7857 17.1351C77.4837 17.0668 77.1135 17.0181 76.9771 17.0181C76.636 17.0181 76.5873 16.7648 76.8211 16.1315C77.1135 15.3325 77.1914 14.9818 77.1914 14.3387C77.1914 13.7248 77.1135 13.3156 77.0063 13.3156C76.9673 13.3156 76.8893 13.7248 76.8309 14.212Z" fill="#E0E0E0"/>
<path d="M84.1576 20.5939C82.1504 21.7437 80.6992 22.2699 79.4908 22.2893C79.1595 22.2893 78.8088 22.3283 78.7016 22.3673C78.3995 22.4939 79.14 22.6693 79.9682 22.6693C80.8352 22.6693 81.6048 22.4744 82.5992 21.9873C83.3496 21.6267 84.7912 20.6427 85.0736 20.3016C85.308 20.0094 84.996 20.1068 84.1576 20.5939Z" fill="#E0E0E0"/>
<path d="M73.3622 21.3247C74.736 23.1565 75.3304 23.7703 76.0611 24.1308C76.6458 24.4036 77.318 24.3842 77.8637 24.0723L78.3021 23.8288L78.8478 24.0723C79.6467 24.4329 80.6112 24.5595 81.6536 24.4329C82.5016 24.3257 83.5344 24.0431 84.012 23.7801C84.2264 23.6631 84.236 23.6534 84.0608 23.6534C83.9536 23.6436 83.5832 23.7216 83.232 23.7995C82.8136 23.9067 82.1504 23.9652 81.284 23.9652C80.144 23.9652 79.8903 23.9359 79.4031 23.7508C79.101 23.6339 78.7211 23.4293 78.5652 23.2929L78.2924 23.059L78.1073 23.2637C77.8344 23.5657 77.2498 23.8385 76.8893 23.8385C76.3339 23.8385 75.7591 23.4585 74.5606 22.3185C73.5278 21.3247 73.0894 20.9739 73.3622 21.3247Z" fill="#E0E0E0"/>
<path d="M89.6144 21.9093C89.5072 21.9678 88.5912 22.5718 87.568 23.2538C85.668 24.5206 84.4792 25.2415 83.0664 25.982C82.6184 26.2158 82.2576 26.44 82.2576 26.4887C82.2576 26.5862 82.1992 26.5958 82.94 26.3718C84.7032 25.8164 87.4512 24.121 89.3704 22.3965C89.8968 21.919 90.004 21.7046 89.6144 21.9093Z" fill="#E0E0E0"/>
<path d="M91.1048 22.377C89.9744 22.6595 88.776 23.6144 88.3376 24.5693C88.016 25.2708 88.0848 25.4559 88.4648 24.9006C89.332 23.6631 90.5592 22.9129 91.9232 22.7959C92.6832 22.7278 93.2776 22.9031 93.8816 23.3708C94.1256 23.5755 94.2424 23.6144 94.2424 23.517C94.2424 23.2734 93.8912 22.9129 93.356 22.6206C92.7904 22.3185 91.7872 22.2114 91.1048 22.377Z" fill="#E0E0E0"/>
<path d="M87.1784 27.0831C85.9216 28.7492 83.7488 30.6491 82.092 31.5261C81.9656 31.5845 81.868 31.6819 81.868 31.721C81.868 31.9548 83.2424 31.341 84.236 30.6687C85.1904 30.0256 86.0968 29.1779 86.7792 28.2912C87.2952 27.6092 87.8608 26.5569 87.792 26.3815C87.7728 26.3328 87.5 26.6543 87.1784 27.0831Z" fill="#E0E0E0"/>
</g>
<defs>
<clipPath id="clip0_6_1291">
<rect width="200" height="48" fill="white"/>
</clipPath>
</defs>
</svg>
