<svg width="100" height="100" viewBox="0 0 100 100" fill="none" xmlns="http://www.w3.org/2000/svg">
<path d="M43.3594 5.625V11.2695L36.9727 12.9883C23.0273 16.7188 19.8633 17.5781 19.8242 17.6172C19.7852 17.6562 21.6797 24.7852 24.0234 33.4961L28.2812 49.3164L25.6055 52.0117C22.793 54.8633 22.3047 55.1758 20.8008 55.0391L20.0195 54.9805L19.9609 52.5L19.9023 50H9.96094H0V75V100H9.96094H19.9023L19.9609 97.5195L20.0195 95.0195H21.4062H22.7734L25.7031 97.207C27.3242 98.418 29.0234 99.5508 29.4922 99.707C30.2148 99.9609 34.5508 100 65.1562 100H100V50V0H71.6797H43.3594V5.625ZM96.6797 50V96.6797H84.5508C73.0664 96.6797 72.4219 96.6602 72.5586 96.3281C73.0273 95.2344 73.2227 94.5508 73.2422 93.9844V93.3594H78.3008H83.3594L83.4375 91.4258C83.4961 89.6875 83.5742 89.375 84.2383 88.0273C85.1172 86.25 86.4258 84.9805 88.2812 84.1016C89.3555 83.5938 89.8242 83.4961 91.4648 83.4375L93.3594 83.3594V50V16.6406L91.4648 16.5625C89.8242 16.5039 89.3555 16.4062 88.2812 15.8984C86.4258 15.0195 85.1172 13.75 84.2383 11.9727C83.5742 10.625 83.4961 10.3125 83.4375 8.57422L83.3594 6.64062H71.6602H59.9609V8.08594C59.9609 11.6016 58.2227 14.3945 55.0781 15.8789C53.9844 16.4062 53.5352 16.5039 51.9141 16.5625L50 16.6406V36.6406V56.6406H48.3398H46.6797V29.9805V3.32031H71.6797H96.6797V50ZM80.2539 10.6836C80.3711 11.0938 80.4688 11.5234 80.4688 11.6406C80.4688 11.7773 80.8203 12.5781 81.2695 13.457C82.8711 16.6602 85.6055 18.8086 89.2188 19.7266L90.0391 19.9414V50V80.0586L89.2188 80.2734C85.6055 81.1914 82.8711 83.3398 81.2695 86.543C80.8203 87.4219 80.4688 88.2227 80.4688 88.3594C80.4688 88.4766 80.3711 88.9062 80.2539 89.2969L80.0586 90.0391L77.1875 90.0195C74.5117 90.0195 74.375 90 75.1367 89.7461C77.2461 89.1016 78.9453 87.4805 79.6094 85.5078C80.0781 84.1211 80.0391 82.1484 79.5312 80.9961L79.1406 80.1172L80.3125 80C82.8125 79.707 84.9219 78.3594 85.8984 76.4453C87.8906 72.5195 85.7422 67.8711 81.4648 66.875C80.8594 66.7188 80.0781 66.6016 79.7266 66.6016H79.082L79.3945 65.9961C80.2148 64.4336 80.1172 62.0898 79.1992 60.2734L78.7109 59.3164L79.668 58.3984C80.8984 57.207 82.0703 55.4102 82.6172 53.8477C83.2227 52.1484 83.3594 48.9844 82.9297 47.2656C81.7578 42.6758 78.2031 39.375 73.5938 38.5547C70.9961 38.0859 68.6523 38.4766 66.1523 39.8047C63.5742 41.1523 61.6016 43.4961 60.625 46.3867C59.8633 48.5938 59.8633 51.3477 60.6055 53.6133C60.8984 54.4727 61.3477 55.5078 61.6211 55.8984L62.1289 56.6406H57.7148H53.3203V38.2812V19.9414L54.0625 19.7461C54.4531 19.6289 54.8828 19.5312 55 19.5312C55.1367 19.5312 55.957 19.1602 56.8555 18.7109C59.1211 17.5977 60.9961 15.7031 62.0898 13.4375C62.5195 12.5586 62.9297 11.4648 63.0078 11.0352C63.0664 10.6055 63.1836 10.1953 63.2227 10.0977C63.2617 10.0195 67.0703 9.96094 71.6797 9.96094H80.0586L80.2539 10.6836ZM43.3594 16.4844V18.1445L42.3438 18.4375C41.7773 18.5938 40.5273 18.9258 39.5898 19.1602C38.6328 19.3945 37.8125 19.6875 37.7734 19.8242C37.7148 19.9609 37.8125 20.6055 37.9688 21.25C38.7305 24.1406 38.0078 26.9727 35.9766 29.1406C34.8633 30.332 33.7891 30.9766 31.9727 31.543C31.0352 31.8359 30.5859 32.0703 30.6055 32.2461C30.6641 32.5195 36.8164 55.6055 37.0312 56.2891C37.1289 56.6016 36.9727 56.6406 35.7617 56.6406C34.6289 56.6406 34.3164 56.5625 33.9062 56.1914C33.4766 55.8203 32.793 53.4375 28.6523 37.8906C26.0156 28.0664 23.8867 20 23.9258 19.9609C24.0234 19.8633 42.6758 14.8828 43.0273 14.8633C43.3203 14.8438 43.3594 15.0391 43.3594 16.4844ZM43.3594 39.1602V56.6602L41.9531 56.6016L40.5469 56.543L37.6758 45.8008C36.0742 39.8828 34.7461 34.8633 34.668 34.6289C34.5898 34.2773 34.7461 34.1016 35.7227 33.5938C37.3828 32.6953 39.2578 30.7617 40.2148 28.9258C41.1719 27.0898 41.6016 25.4102 41.6016 23.4961V22.0898L42.2461 21.8945C42.5781 21.7969 42.9883 21.6992 43.125 21.6992C43.3008 21.6797 43.3594 25.293 43.3594 39.1602ZM73.2812 41.8164C77.6172 42.7344 80.5469 46.9141 79.8633 51.2305C79.5312 53.3594 78.4375 55.1758 76.7578 56.5234C75.957 57.168 75.9375 57.168 74.9414 56.8945C74.2773 56.7188 72.6953 56.6406 70.2344 56.6406H66.543L65.6641 55.7422C64.6094 54.6289 63.7305 52.832 63.4375 51.1719C62.7344 47.0898 65.5859 42.8906 69.8242 41.875C71.0938 41.5625 72.0117 41.543 73.2812 41.8164ZM29.4922 53.9453C30.4688 57.6758 31.0547 58.6328 32.9102 59.4922L33.8867 59.9609H53.9062C73.1445 59.9609 73.9648 59.9805 74.7461 60.332C77.207 61.4648 77.2266 65.0391 74.7656 66.3281C74.3359 66.5625 72.2656 66.6016 62.9883 66.6016H51.7578V68.2617V69.9023L66.3672 69.9609L80.957 70.0195L81.6797 70.4688C83.9062 71.8555 83.8086 75.1562 81.5039 76.2891C80.8008 76.6406 80.0781 76.6602 66.2695 76.7188L51.7578 76.7773V78.418V80.0781H63.0664H74.3555L75 80.5078C76.3086 81.4062 76.8164 82.6367 76.5039 84.1406C76.3086 85.1758 75.3125 86.2305 74.2773 86.5039C73.8086 86.6406 69.6289 86.7188 62.6562 86.7188H51.7578V88.3789V90.0195L59.8438 90.0781C67.7148 90.1367 67.9492 90.1562 68.4961 90.5469C68.7891 90.7617 69.2578 91.25 69.4922 91.6211C69.8828 92.1875 69.9414 92.4805 69.8828 93.457C69.7852 94.9023 69.2383 95.7812 68.0859 96.3086C67.3242 96.6602 66.4062 96.6797 49.0625 96.6797C36.0352 96.6797 30.7227 96.6211 30.4297 96.4648C30.1953 96.3477 28.8086 95.332 27.3242 94.2188C24.3164 91.9727 23.4375 91.6016 21.25 91.6016H19.9219V75.0195V58.457L21.5625 58.3594C23.8281 58.2031 24.4922 57.832 27.0508 55.2734C28.2227 54.1016 29.2188 53.125 29.2383 53.125C29.2578 53.125 29.375 53.4961 29.4922 53.9453ZM16.6016 75V96.6797H9.96094H3.32031V75V53.3203H9.96094H16.6016V75Z" fill="#56647B"/>
<path d="M69.9217 26.6599V31.6404H71.5818H73.242V26.6599V21.6794H71.5818H69.9217V26.6599Z" fill="#56647B"/>
</svg>
